<!-- Generator: Adobe Illustrator 19.2.0, SVG Export Plug-In  -->
<svg version="1.1"
	 xmlns="http://www.w3.org/2000/svg" xmlns:xlink="http://www.w3.org/1999/xlink" xmlns:a="http://ns.adobe.com/AdobeSVGViewerExtensions/3.0/"
	 x="0px" y="0px" width="87.3px" height="83.4px" viewBox="0 0 87.3 83.4" style="enable-background:new 0 0 87.3 83.4;"
	 xml:space="preserve">
<defs>
</defs>
<path d="M86.7,24.1c-0.3-0.3-0.8-0.9-1.4-1.4s-1.4-1.3-2.4-1.8c-0.9-0.6-2.1-1.1-3.3-1.6c-1.2-0.5-2.6-0.8-4-1
	c-1.5-0.3-2.9-0.3-4.5-0.2c-1.5,0.1-3,0.3-4.6,0.7c-1.5,0.4-2.9,0.9-4.4,1.5c-1.4,0.7-2.7,1.4-3.9,2.3c-1.2,0.9-2.4,1.8-3.4,2.8
	c-2,2-3.6,4.4-4.6,6.6c-0.5,1.1-0.9,2.2-1.2,3.3c-0.3,1-0.5,2-0.6,2.8c-0.1,0.4-0.1,0.7-0.1,1.1c0.4-0.3,0.7-0.6,1.2-1
	c2.1-1.7,5-3.8,8.1-5.6c1.6-0.9,3.2-1.7,4.7-2.4c0.8-0.3,1.5-0.6,2.3-0.9c0.7-0.2,1.4-0.4,2.1-0.6c0.7-0.1,1.3-0.3,1.8-0.4
	c0.5-0.1,1-0.1,1.4-0.2c0.8-0.1,1.2-0.1,1.2-0.1s-0.4,0.1-1.2,0.2c-0.4,0.1-0.8,0.1-1.4,0.3c-0.5,0.2-1.1,0.3-1.7,0.5
	s-1.3,0.5-2,0.8s-1.4,0.7-2.1,1c-1.5,0.8-3,1.7-4.4,2.7c-2.9,2-5.6,4.3-7.5,6.1c-0.5,0.5-1,1-1.4,1.4c0.4,0.1,1,0.2,1.6,0.2
	c0.8,0.1,1.8,0.2,2.8,0.3s2.1,0.1,3.2,0.1c1.1,0,2.3-0.1,3.5-0.2c1.2-0.1,2.4-0.3,3.5-0.5c1.2-0.3,2.3-0.5,3.4-0.9s2.2-0.8,3.3-1.3
	c2.1-0.9,4-2.1,5.8-3.4c0.9-0.6,1.7-1.4,2.5-2.1c0.8-0.7,1.6-1.5,2.4-2.2c0.7-0.7,1.5-1.4,2.2-2.2c0.7-0.7,1.3-1.4,1.9-1.9
	c0.5-0.5,1-1.1,1.3-1.4c0.3-0.4,0.5-0.6,0.5-0.6S87,24.5,86.7,24.1z"/>
<path d="M47.3,29.8c-0.9-1.5-1.7-3.2-2.4-4.7c-0.3-0.8-0.6-1.5-0.9-2.3c-0.2-0.7-0.4-1.4-0.6-2.1c-0.1-0.7-0.3-1.3-0.4-1.8
	c-0.1-0.5-0.1-1-0.2-1.4c-0.1-0.8-0.1-1.2-0.1-1.2s0.1,0.4,0.2,1.2c0.1,0.4,0.1,0.8,0.3,1.4c0.2,0.5,0.3,1.1,0.5,1.7s0.5,1.3,0.8,2
	s0.7,1.4,1,2.1c0.8,1.4,1.7,3,2.7,4.4c0.4,0.6,0.9,1.2,1.3,1.7c1.6-3,3.6-5.7,5.9-8.1c-0.2-1-0.5-1.9-0.8-2.8
	c-0.4-1.1-0.8-2.2-1.3-3.3c-0.9-2.1-2.1-4-3.4-5.8c-0.6-0.9-1.4-1.7-2.1-2.5c-0.7-0.8-1.5-1.6-2.2-2.4c-0.7-0.7-1.4-1.5-2.2-2.2
	C42.7,3,42,2.4,41.5,1.8c-0.5-0.5-1.1-1-1.4-1.3C39.7,0.2,39.5,0,39.5,0s-0.2,0.2-0.6,0.5c-0.3,0.3-0.9,0.8-1.4,1.4
	c-0.5,0.6-1.3,1.4-1.8,2.4c-0.6,0.9-1.1,2.1-1.6,3.3s-0.8,2.6-1,4c-0.3,1.5-0.3,2.9-0.2,4.5c0.1,1.5,0.3,3,0.7,4.6
	c0.4,1.5,0.9,2.9,1.5,4.4c0.7,1.4,1.4,2.7,2.3,3.9c0.9,1.2,1.8,2.4,2.8,3.4c2,2,4.4,3.6,6.6,4.6c0.1,0,0.2,0.1,0.3,0.1
	c0.5-1.7,1.1-3.3,1.9-4.9C48.3,31.4,47.8,30.6,47.3,29.8z"/>
<path d="M9.3,81.9c0,0-0.1,1.5,1.4,1.5c1.8,0,17.1,0,17.1,0v-14c0,0-0.2-2.3,2-2.3h7.1c2.7,0,2.5,2.3,2.5,2.3v14c0,0,14.5,0,16.8,0
	c1.9,0,1.8-1.9,1.8-1.9V55.6l-23.6-21l-25.1,21L9.3,81.9z"/>
<path d="M0,53.6c0,0,2.1,3.9,6.8,0l27.8-23.5l26,23.3c5.4,3.9,7.4,0,7.4,0L34.6,23.2L0,53.6z"/>
</svg>
