<!-- Generator: Adobe Illustrator 19.2.0, SVG Export Plug-In  -->
<svg version="1.1"
	 xmlns="http://www.w3.org/2000/svg" xmlns:xlink="http://www.w3.org/1999/xlink" xmlns:a="http://ns.adobe.com/AdobeSVGViewerExtensions/3.0/"
	 x="0px" y="0px" width="80px" height="51px" viewBox="0 0 80 51" style="enable-background:new 0 0 80 51;" xml:space="preserve">
<defs>
</defs>
<g>
	<circle cx="10" cy="5" r="5"/>
</g>
<g>
	<circle cx="40" cy="5" r="5"/>
</g>
<path d="M35,11c-0.6,0-1.3,0.2-1.8,0.7L25,20l-8.2-8.2C16.3,11.2,15.6,11,15,11H5c-2.8,0-5,2.2-5,5v10c0,2.8,2.2,5,5,5v20h10V31V17
	l8.2,8.2c0.5,0.5,1.1,0.7,1.8,0.7c0.7,0,1.3-0.3,1.8-0.7L35,17v14v20h10V31V17l8.2,8.2c0.5,0.5,1.1,0.7,1.8,0.7
	c0.7,0,1.3-0.3,1.8-0.7L65,17v14v20h10V31c2.8,0,5-2.2,5-5V16c0-2.8-2.2-5-5-5H65c-0.6,0-1.3,0.2-1.8,0.7L55,20l-8.2-8.2
	C46.3,11.2,45.6,11,45,11L35,11L35,11z"/>
<g>
	<circle cx="40" cy="5" r="5"/>
</g>
<g>
	<circle cx="70" cy="5" r="5"/>
</g>
</svg>
