<!-- Generator: Adobe Illustrator 19.2.0, SVG Export Plug-In  -->
<svg version="1.1"
	 xmlns="http://www.w3.org/2000/svg" xmlns:xlink="http://www.w3.org/1999/xlink" xmlns:a="http://ns.adobe.com/AdobeSVGViewerExtensions/3.0/"
	 x="0px" y="0px" width="76.8px" height="83px" viewBox="0 0 76.8 83" style="enable-background:new 0 0 76.8 83;"
	 xml:space="preserve">
<defs>
</defs>
<path d="M47.7,59.7v-4.6c6.4-2.7,11.4-8.2,13.5-15v1.3c0,3.4,2.8,6.2,6.2,6.2h2.1c3.4,0,6.2-2.8,6.2-6.2V27c0-3.4-2.8-6.2-6.2-6.2
	h-0.4C64.2,8.6,52.3,0,38.4,0S12.6,8.6,7.7,20.8H7.3c-3.4,0-6.2,2.8-6.2,6.2v14.5c0,3.4,2.8,6.2,6.2,6.2h2.1c3.4,0,6.2-2.8,6.2-6.2
	v-1.3c2.1,6.8,7.1,12.3,13.5,15v4.6C14.6,62.5,3.3,71.6,0,83h4.3C7.5,73.8,17,66.5,29.1,63.9c1.4-0.3,2.7-0.5,4.2-0.7V52.2
	c-1.5-0.4-2.8-0.9-4.2-1.6c-6.2-3.3-10.4-9.9-10.4-17.4c0-10.9,8.8-19.7,19.7-19.7s19.7,8.8,19.7,19.7c0,7.5-4.2,14-10.4,17.4
	c-1.3,0.7-2.7,1.2-4.2,1.6v11.1c1.4,0.2,2.8,0.4,4.2,0.7c12,2.5,21.5,9.8,24.7,19.1h4.3C73.5,71.6,62.2,62.5,47.7,59.7z M38.4,9.3
	c-10.8,0-20,7.2-22.9,17.1c-0.2-2.3-1.6-4.2-3.6-5.1C16.5,11.2,26.6,4.1,38.4,4.1s21.9,7.1,26.5,17.2c-2,0.9-3.4,2.8-3.6,5.1
	C58.4,16.6,49.2,9.3,38.4,9.3z"/>
</svg>
