<!-- Generator: Adobe Illustrator 19.2.0, SVG Export Plug-In  -->
<svg version="1.1"
	 xmlns="http://www.w3.org/2000/svg" xmlns:xlink="http://www.w3.org/1999/xlink" xmlns:a="http://ns.adobe.com/AdobeSVGViewerExtensions/3.0/"
	 x="0px" y="0px" width="49.4px" height="48px" viewBox="0 0 49.4 48" style="enable-background:new 0 0 49.4 48;"
	 xml:space="preserve">
<defs>
</defs>
<g>
	<g>
		<g>
			<g>
				<g>
					<path d="M49.3,12c0.4,2.6,0.2,4.8-0.4,6.7c-2.8-3.2-6.9-5.2-11.4-5.2c-8.4,0-15.3,6.9-15.3,15.3c0,5,2.4,9.5,6.2,12.3
						c-2.1,2.7-3.7,5.3-3.8,7c-0.1-1.7-1.7-4.1-3.7-6.7c-2-2.6-4.6-5.2-6.6-7.3c-2.6-2.6-6.1-4.8-8.9-7.5c-3.4-3.3-6-7.3-5.1-13.8
						c0.6-4.3,2.6-7.3,5.1-9.3c3.3-2.6,13.7-5.7,19.3,4.3l0.1,0.6c1.7-4.6,4-6.8,8.1-8C38.1-1,44.4,0.9,47.5,6.6
						C48.3,8.1,48.9,9.9,49.3,12z"/>
					<path d="M37.9,18c6.3,0,11.5,5.1,11.5,11.5c0,6.3-5.1,11.4-11.5,11.4c-6.3,0-11.5-5.1-11.5-11.4C26.4,23.1,31.6,18,37.9,18z
						 M44.9,27.2h-4.2V23h-4.3v4.2h-4.2v4.3h4.2v4.2h4.3v-4.2h4.2V27.2z"/>
				</g>
			</g>
		</g>
	</g>
</g>
</svg>
