<!-- Generator: Adobe Illustrator 19.2.0, SVG Export Plug-In  -->
<svg version="1.1"
	 xmlns="http://www.w3.org/2000/svg" xmlns:xlink="http://www.w3.org/1999/xlink" xmlns:a="http://ns.adobe.com/AdobeSVGViewerExtensions/3.0/"
	 x="0px" y="0px" width="100px" height="70.9px" viewBox="0 0 100 70.9" style="enable-background:new 0 0 100 70.9;"
	 xml:space="preserve">
<defs>
</defs>
<path d="M100,28.4v42.5H79.6c0.1-0.8,0.1-1.7,0.1-2.5c0-16.6-13.5-30.1-30.1-30.1S19.6,51.8,19.6,68.4c0,0.8,0.1,1.7,0.1,2.5H0V28.4
	H100z"/>
<path d="M29.7,16.3c-3.4,0-6.1,2.7-6.1,6.1c0,3.3,2.7,6,6.1,6c3.3,0,6-2.7,6-6C35.7,19,33,16.3,29.7,16.3z M29.7,25.6
	c-1.8,0-3.3-1.5-3.3-3.3c0-1.8,1.5-3.3,3.3-3.3c1.8,0,3.3,1.4,3.3,3.3C32.9,24.1,31.5,25.6,29.7,25.6z"/>
<path d="M70.4,16.3c-3.3,0-6,2.7-6,6.1c0,3.3,2.7,6,6,6c3.3,0,6.1-2.7,6.1-6C76.5,19,73.8,16.3,70.4,16.3z M70.4,25.6
	c-1.8,0-3.3-1.5-3.3-3.3c0-1.8,1.5-3.3,3.3-3.3c1.8,0,3.3,1.4,3.3,3.3C73.7,24.1,72.2,25.6,70.4,25.6z"/>
<path d="M82.2,17.8c0-5.9-3.7-6.6-3.7-6.6c-5.4-0.7-14.7-1.1-14.7-1.1C63,8.6,59.1,0,56.8,0C56,0,39.6,0,36.7,0
	C33.8,0,29,8.4,28,10.3c0,0-3.7,0.6-5.4,1C21.6,11.5,19,11.6,19,19h-2.3v3.4h5.6c0-4.1,3.3-7.5,7.5-7.5c4.1,0,7.4,3.3,7.4,7.5H63
	c0-4.1,3.3-7.5,7.4-7.5c4.1,0,7.5,3.3,7.5,7.5h5.5v-4.5L82.2,17.8z M46.5,9.5H34.9c1.6-4.9,4.5-8.4,5.7-8.4c1.6,0,5.9,0,5.9,0
	L46.5,9.5z M48.7,9.5V1.1c0,0,6,0,7.5,0c1.5,0,4.9,7.1,5.9,8.9L48.7,9.5z"/>
</svg>
