<!-- Generator: Adobe Illustrator 19.2.0, SVG Export Plug-In  -->
<svg version="1.1"
	 xmlns="http://www.w3.org/2000/svg" xmlns:xlink="http://www.w3.org/1999/xlink" xmlns:a="http://ns.adobe.com/AdobeSVGViewerExtensions/3.0/"
	 x="0px" y="0px" width="22px" height="17px" viewBox="0 0 22 17" style="enable-background:new 0 0 22 17;" xml:space="preserve">
<defs>
</defs>
<g>
	<path d="M15.6,15.8c-1.4,0-2.7,0.9-4.1,0.9c-1.4,0-2.8-0.9-4.1-0.9c-1.6,0-2.7,0.6-3.4,1
		c-0.9,0.4-1.3-0.4-0.6-0.8c0,0,1.3-1.1,4.1-1.1c1.5,0,2.6,0.8,4.1,0.8c1.6,0,2.6-0.8,4.1-0.8c2.6,0,4.1,1.1,4.1,1.1
		c0.7,0.5,0,1.2-0.7,0.7C18.1,16.3,17.7,15.8,15.6,15.8z M10,0c0,0,3.5,2.9,5.5,5.2s3.5,5.2,3.5,5.2L11.5,11c0,0,0.1-2.3,0-4.3
		C11.4,4.8,10,0,10,0z M7.8,9.2C6.7,11,5,12,5,12l5-0.6L9.6,4C9.6,4,8.9,7.4,7.8,9.2z M1.8,16c0,0,1.8-1.7,4.8-1.8S10,15,11.5,15
		s3.1-1,4.4-1.1c2.3-0.1,4,1.2,4,1.2C22,15.1,22,11,22,11L0,13.2C0.3,15.4,1.8,16,1.8,16z"/>
</g>
</svg>
