<!-- Generator: Adobe Illustrator 19.2.0, SVG Export Plug-In  -->
<svg version="1.1"
	 xmlns="http://www.w3.org/2000/svg" xmlns:xlink="http://www.w3.org/1999/xlink" xmlns:a="http://ns.adobe.com/AdobeSVGViewerExtensions/3.0/"
	 x="0px" y="0px" width="47.7px" height="62.7px" viewBox="0 0 47.7 62.7" style="enable-background:new 0 0 47.7 62.7;"
	 xml:space="preserve">
<defs>
</defs>
<g>
	<path d="M12.9,0c0,0,4.5,1,6.6,3.3c2.1,2.2,2.8,6.7,2.8,6.7s-4.5-0.6-7-3.3C12.8,4.1,12.9,0,12.9,0z"/>
	<polygon points="23.6,10 23.6,3.1 25.9,4.1 24.7,9.8 	"/>
</g>
<g>
	<path d="M42.6,14.3c-6.9-9-14.7-1.7-19.7-1.6C18.2,12.9,10,6.1,3.3,15.4c-5,6.9-2.1,17.9,0.5,22
		c2.5,4.1,8,9.3,14.7,9.1c2.7-0.1,3.8-1,5.1-1c1.4,0,2.5,1.1,5.2,1.1c6.5-0.2,13.1-5.7,15.4-9.9C46.4,32.4,47.8,21.1,42.6,14.3z
		 M10.1,21.8c-1.4,2.2-0.9,5.5-3.2,6c-1.6,0.3-4.4-2.8-1.7-8.2c2.7-5.4,9-5.1,10-3.2C16.7,19.1,11.2,20.2,10.1,21.8z"/>
	<path d="M45.9,50H1.8c-1,0-1.8,0.7-1.8,1.6v9.6c0,0.9,0.8,1.6,1.8,1.6h44.2c1,0,1.8-0.7,1.8-1.6v-9.6
		C47.7,50.7,46.9,50,45.9,50z M8.9,60.8h-3v-9h3V60.8z M36.9,60.8h-1.5v-9h1.5V60.8z M42.3,60.8h-3.2v-9h3.2V60.8z"/>
</g>
</svg>
