<!-- Generator: Adobe Illustrator 19.2.0, SVG Export Plug-In  -->
<svg version="1.1"
	 xmlns="http://www.w3.org/2000/svg" xmlns:xlink="http://www.w3.org/1999/xlink" xmlns:a="http://ns.adobe.com/AdobeSVGViewerExtensions/3.0/"
	 x="0px" y="0px" width="118.1px" height="216.9px" viewBox="0 0 118.1 216.9" style="enable-background:new 0 0 118.1 216.9;"
	 xml:space="preserve">
<g>
	<path d="M23.8,19.7c0,0-4.9,8.6,3.8,11.1c11,2.7,22.7,4.5,33.7,8.9c3.1,1.2-0.3,4.1-2.3,4C40,38.5,21.8,31.9,0,32.8
		c4.9,5.9,12.1,13.9,13.7,21.9c7.6-6.1,19.4-9.5,28.7-4.5l-11,3.8C14.1,60.5,2.3,78.9,0.5,96.5c-1.6,19.6,8.9,36.7,26.1,45.7
		c20.7,10.9,53.9,6.3,63.3,28.3c2.3,5.3,2.1,15.7-2.3,22c-7.9,10-19,13-32.2,11.5c0,0-15.5-2.1-24.7-9.1c-13.1-10-17-23.4-18.7-38.3
		l-8-0.1c1.9,18.9,0.1,37.9-2.6,55.8l6.7,0.7c0,0,1.8-4.7,3.7-7.6c1.5-1.5,4.1-2,6.1-0.6c23.2,16,60.9,15.9,82.7,1.2
		c15-11.1,20.4-27.8,16-45.2c-9.9-34.9-50-31.1-76.1-43.1c-8.7-3.4-17.5-11.9-17.5-22.1C22.8,85,27.1,76.5,35.8,70.5
		c3.5-2.2,7.4-2.5,7.4-2.5C36.1,75.3,31.7,83.7,33,94.4c0.9,8.6,8.4,17,16.7,19.4c8.1,2.2,15.4-1,21.4-5.7l-0.7-3.7
		c-3.5,0.9-8.1,1-11.6,0.1c-7.3-2.6-9.9-9.7-9.3-17c0.6-3.1,3.1-5.3,6.7-4.4c17.9,7.4,14.6,31.2,31.5,39.5
		c5.6,2.1,10.9,0.2,14.4-2.3c8.8-6.2,12-14.4,14.4-24.4c-4.8,5.4-9.1,11.1-16.1,12.4c-3.5,0.8-5.3,0.1-7.4-3
		c-6.9-11-9.1-29.4-25.3-31c-3.1,0.1-4-0.3-9.8,0.7c4.1-3.4,9.1-6.7,14.6-6.8c8.1-0.3,16.4,5.3,19.6,10.9c1.6,3,1.1,8.1-1.1,11
		l3.7,2.8c6.1-7.9,19.2-18,19.1-24.6c-1.1-13-20.6-20.8-32.2-25.4c0,0,2-5.2,1-8.9c-2.3-5.2-7-6-11.7-7.3c-8.4-2.4-22.1-3.5-28.3-9
		C36.5,12.2,39.4,6.3,40.9,0C24.6,17.4,23.8,19.7,23.8,19.7z M74.8,46.9c1.9,1,3.9,3,4.9,4.8L62,48.9C65.5,46.4,70.7,44.4,74.8,46.9
		z"/>
</g>
</svg>
