<!-- Generator: Adobe Illustrator 19.2.0, SVG Export Plug-In  -->
<svg version="1.1"
	 xmlns="http://www.w3.org/2000/svg" xmlns:xlink="http://www.w3.org/1999/xlink" xmlns:a="http://ns.adobe.com/AdobeSVGViewerExtensions/3.0/"
	 x="0px" y="0px" width="114px" height="78.2px" viewBox="0 0 114 78.2" style="enable-background:new 0 0 114 78.2;"
	 xml:space="preserve">
<defs>
</defs>
<g>
	<circle cx="17.1" cy="69.3" r="8.9"/>
	<circle cx="53" cy="69.3" r="8.9"/>
	<circle cx="88.9" cy="69.3" r="8.9"/>
	<g>
		<path d="M26.3,32.2V10.9L18,26.8h-3.4L6.3,10.9v21.3H0V0h6.7l9.5,18.3L25.9,0h6.7v32.2H26.3z"/>
		<path d="M49.4,32.7c-1.9,0-3.6-0.3-5.2-1c-1.5-0.6-2.9-1.5-3.9-2.7c-1.1-1.1-1.9-2.4-2.5-3.9c-0.6-1.5-0.9-3-0.9-4.7
			c0-1.7,0.3-3.3,0.9-4.8c0.6-1.5,1.4-2.8,2.5-3.9s2.4-2,4-2.7c1.6-0.7,3.3-1,5.2-1c1.9,0,3.7,0.3,5.2,1c1.5,0.7,2.8,1.6,3.9,2.7
			c1.1,1.1,1.9,2.4,2.5,3.9c0.6,1.5,0.8,3,0.8,4.6c0,0.4,0,0.8,0,1.1c0,0.4-0.1,0.7-0.1,0.9H43.3c0.1,0.9,0.3,1.8,0.7,2.5
			c0.4,0.7,0.8,1.3,1.4,1.9c0.6,0.5,1.2,0.9,2,1.2c0.7,0.3,1.5,0.4,2.3,0.4c1.2,0,2.4-0.3,3.4-0.9c1.1-0.6,1.8-1.4,2.2-2.3l5.2,1.5
			c-0.9,1.8-2.3,3.3-4.2,4.5C54.3,32.1,52,32.7,49.4,32.7z M55.5,18.3c-0.2-1.8-0.8-3.2-2-4.3c-1.2-1.1-2.6-1.6-4.2-1.6
			c-0.8,0-1.6,0.1-2.3,0.4c-0.7,0.3-1.3,0.7-1.9,1.2c-0.5,0.5-1,1.1-1.3,1.9c-0.3,0.7-0.6,1.5-0.6,2.4H55.5z"/>
		<path d="M87.6,32.2h-6.1V18.9c0-1.9-0.3-3.3-1-4.2c-0.7-0.9-1.6-1.3-2.8-1.3c-0.6,0-1.2,0.1-1.9,0.4c-0.6,0.2-1.2,0.6-1.8,1
			c-0.6,0.4-1.1,1-1.5,1.6c-0.5,0.6-0.8,1.3-1,2v13.9h-6.1V8.4H71v4.4c0.9-1.5,2.1-2.7,3.8-3.5C76.5,8.5,78.4,8,80.4,8
			c1.5,0,2.7,0.3,3.6,0.8c0.9,0.5,1.7,1.3,2.2,2.1c0.5,0.9,0.9,1.9,1.1,3c0.2,1.1,0.3,2.3,0.3,3.4V32.2z"/>
		<path d="M92.9,36.8c0.5,0.2,1,0.3,1.5,0.3c0.5,0.1,0.9,0.1,1.2,0.1c0.4,0,0.8-0.1,1.1-0.2c0.3-0.2,0.6-0.4,0.9-0.8
			c0.3-0.4,0.5-0.9,0.8-1.6c0.3-0.7,0.6-1.5,0.9-2.5L89.9,8.4h6.3l6.4,18.5l5.7-18.5h5.7l-10,28.5c-0.6,1.7-1.6,3-2.9,4.1
			c-1.4,1.1-3.1,1.6-5.2,1.6c-0.5,0-1,0-1.5-0.1s-1-0.2-1.6-0.4V36.8z"/>
	</g>
</g>
</svg>
