<!-- Generator: Adobe Illustrator 19.2.0, SVG Export Plug-In  -->
<svg version="1.1"
	 xmlns="http://www.w3.org/2000/svg" xmlns:xlink="http://www.w3.org/1999/xlink" xmlns:a="http://ns.adobe.com/AdobeSVGViewerExtensions/3.0/"
	 x="0px" y="0px" width="39.6px" height="46.4px" viewBox="0 0 39.6 46.4" style="enable-background:new 0 0 39.6 46.4;"
	 xml:space="preserve">
<defs>
</defs>
<g>
	<path d="M30.2,10.1c0.4,0,0.8-0.3,0.8-0.8V0.8C31,0.4,30.7,0,30.2,0H9.5C9.1,0,8.7,0.3,8.7,0.8v8.5c0.1,0.4,0.4,0.8,0.8,0.8
		s0.8-0.3,0.8-0.8V1.5h19.1v7.8C29.4,9.7,29.7,10.1,30.2,10.1z"/>
	<path d="M36.1,16.6c0-0.8-0.6-1.4-1.4-1.4c-0.8,0-1.4,0.6-1.4,1.4s0.6,1.4,1.4,1.4C35.5,18,36.1,17.4,36.1,16.6z"/>
	<path d="M8.6,27.9v17.7c0,0.4,0.3,0.8,0.8,0.8h16.3c0,0,0,0,0.1,0c0,0,0,0,0.1,0c0.2,0,0.4-0.1,0.5-0.2l4.4-4.4
		c0.2-0.2,0.2-0.4,0.2-0.6V27.9c0-0.4-0.3-0.8-0.8-0.8H9.4C9,27.1,8.6,27.4,8.6,27.9z M26.6,43.8v-1.9h1.9L26.6,43.8z M10.1,28.6
		h19.4v11.9h-3.7c-0.4,0-0.8,0.3-0.8,0.8V45H10.1V28.6z"/>
	<path d="M32.1,16.7c-0.1-0.8-0.7-1.4-1.4-1.4c-0.8,0-1.4,0.6-1.4,1.4c0,0.8,0.6,1.4,1.4,1.4C31.5,18.1,32.1,17.5,32.1,16.7z"/>
	<path d="M38.9,11.7H0.8C0.4,11.7,0,12,0,12.5v23.1c0,0.4,0.3,0.8,0.8,0.8h5.9c0.4,0,0.8-0.3,0.8-0.8c0-0.4-0.3-0.8-0.8-0.8H1.5
		V13.2h36.6v21.7h-5.2c-0.4,0-0.8,0.3-0.8,0.8c0,0.4,0.3,0.8,0.8,0.8h5.9c0.4,0,0.8-0.3,0.8-0.8V12.4C39.6,12,39.3,11.7,38.9,11.7z"
		/>
</g>
</svg>
