<!-- Generator: Adobe Illustrator 19.2.0, SVG Export Plug-In  -->
<svg version="1.1"
	 xmlns="http://www.w3.org/2000/svg" xmlns:xlink="http://www.w3.org/1999/xlink" xmlns:a="http://ns.adobe.com/AdobeSVGViewerExtensions/3.0/"
	 x="0px" y="0px" width="92.3px" height="92.3px" viewBox="0 0 92.3 92.3" style="enable-background:new 0 0 92.3 92.3;"
	 xml:space="preserve">
<defs>
</defs>
<path d="M91.1,85.4L68.4,62.6c12.2-15.1,11.3-37.3-2.7-51.4C58.4,4,48.7,0,38.4,0C28.2,0,18.5,4,11.2,11.3c-15,15-15,39.4,0,54.4
	c7.3,7.3,16.9,11.3,27.2,11.3c8.9,0,17.3-3,24.2-8.5l22.8,22.8c0.8,0.8,1.8,1.2,2.9,1.2c1,0,2.1-0.4,2.9-1.2
	C92.7,89.6,92.7,87,91.1,85.4z M17,59.9C5.2,48.1,5.2,28.8,17,17c5.7-5.7,13.3-8.9,21.4-8.9c8.1,0,15.7,3.2,21.4,8.9
	c11.8,11.8,11.8,31.1,0,42.9c-5.7,5.7-13.3,8.9-21.4,8.9C30.3,68.8,22.7,65.6,17,59.9z"/>
</svg>
