<!-- Generator: Adobe Illustrator 19.2.0, SVG Export Plug-In  -->
<svg version="1.1"
	 xmlns="http://www.w3.org/2000/svg" xmlns:xlink="http://www.w3.org/1999/xlink" xmlns:a="http://ns.adobe.com/AdobeSVGViewerExtensions/3.0/"
	 x="0px" y="0px" width="63px" height="88.4px" viewBox="0 0 63 88.4" style="enable-background:new 0 0 63 88.4;"
	 xml:space="preserve">
<defs>
</defs>
<g>
	<line class="st0" x1="31.5" y1="3.2" x2="31.5" y2="3.2"/>
	<g>
		<polygon points="39.8,25.4 39.8,28.7 59.7,28.7 59.7,85.1 3.3,85.1 3.3,28.7 23.2,28.7 23.2,25.4 0,25.4 0,88.4 63,88.4 63,25.4 
					"/>
		<path d="M29.8,33.8v23.1h3.3V33.8V20.9V6.3l11,11l2.3-2.3l-15-15l-15,15l2.3,2.3l11-11v14.6L29.8,33.8L29.8,33.8z M31.5,3.2
			L31.5,3.2L31.5,3.2z"/>
	</g>
</g>
</svg>
