<?xml version="1.0" encoding="UTF-8"?><!DOCTYPE svg PUBLIC "-//W3C//DTD SVG 1.1//EN" "http://www.w3.org/Graphics/SVG/1.1/DTD/svg11.dtd"><svg xmlns="http://www.w3.org/2000/svg"><symbol id="bo-miljo" viewBox="0 0 87.3 83.4"><path d="M86.7 24.1c-.3-.3-.8-.9-1.4-1.4s-1.4-1.3-2.4-1.8c-.9-.6-2.1-1.1-3.3-1.6-1.2-.5-2.6-.8-4-1-1.5-.3-2.9-.3-4.5-.2-1.5.1-3 .3-4.6.7-1.5.4-2.9.9-4.4 1.5-1.4.7-2.7 1.4-3.9 2.3-1.2.9-2.4 1.8-3.4 2.8-2 2-3.6 4.4-4.6 6.6-.5 1.1-.9 2.2-1.2 3.3-.3 1-.5 2-.6 2.8-.1.4-.1.7-.1 1.1.4-.3.7-.6 1.2-1 2.1-1.7 5-3.8 8.1-5.6 1.6-.9 3.2-1.7 4.7-2.4.8-.3 1.5-.6 2.3-.9l2.1-.6c.7-.1 1.3-.3 1.8-.4.5-.1 1-.1 1.4-.2.8-.1 1.2-.1 1.2-.1s-.4.1-1.2.2c-.4.1-.8.1-1.4.3-.5.2-1.1.3-1.7.5s-1.3.5-2 .8-1.4.7-2.1 1c-1.5.8-3 1.7-4.4 2.7-2.9 2-5.6 4.3-7.5 6.1L49.4 41c.4.1 1 .2 1.6.2.8.1 1.8.2 2.8.3s2.1.1 3.2.1 2.3-.1 3.5-.2c1.2-.1 2.4-.3 3.5-.5 1.2-.3 2.3-.5 3.4-.9s2.2-.8 3.3-1.3c2.1-.9 4-2.1 5.8-3.4.9-.6 1.7-1.4 2.5-2.1.8-.7 1.6-1.5 2.4-2.2.7-.7 1.5-1.4 2.2-2.2.7-.7 1.3-1.4 1.9-1.9.5-.5 1-1.1 1.3-1.4.3-.4.5-.6.5-.6l-.6-.8zM47.3 29.8c-.9-1.5-1.7-3.2-2.4-4.7-.3-.8-.6-1.5-.9-2.3l-.6-2.1c-.1-.7-.3-1.3-.4-1.8-.1-.5-.1-1-.2-1.4-.1-.8-.1-1.2-.1-1.2s.1.4.2 1.2c.1.4.1.8.3 1.4.2.5.3 1.1.5 1.7s.5 1.3.8 2 .7 1.4 1 2.1c.8 1.4 1.7 3 2.7 4.4.4.6.9 1.2 1.3 1.7 1.6-3 3.6-5.7 5.9-8.1-.2-1-.5-1.9-.8-2.8-.4-1.1-.8-2.2-1.3-3.3-.9-2.1-2.1-4-3.4-5.8-.6-.9-1.4-1.7-2.1-2.5-.7-.8-1.5-1.6-2.2-2.4-.7-.7-1.4-1.5-2.2-2.2-.7-.7-1.4-1.3-1.9-1.9-.5-.5-1.1-1-1.4-1.3-.4-.3-.6-.5-.6-.5s-.2.2-.6.5c-.3.3-.9.8-1.4 1.4-.5.6-1.3 1.4-1.8 2.4-.6.9-1.1 2.1-1.6 3.3s-.8 2.6-1 4c-.3 1.5-.3 2.9-.2 4.5.1 1.5.3 3 .7 4.6.4 1.5.9 2.9 1.5 4.4.7 1.4 1.4 2.7 2.3 3.9.9 1.2 1.8 2.4 2.8 3.4 2 2 4.4 3.6 6.6 4.6.1 0 .2.1.3.1.5-1.7 1.1-3.3 1.9-4.9-.7-.8-1.2-1.6-1.7-2.4zM9.3 81.9s-.1 1.5 1.4 1.5h17.1v-14s-.2-2.3 2-2.3h7.1c2.7 0 2.5 2.3 2.5 2.3v14h16.8c1.9 0 1.8-1.9 1.8-1.9V55.6l-23.6-21-25.1 21v26.3z"/><path d="M0 53.6s2.1 3.9 6.8 0l27.8-23.5 26 23.3c5.4 3.9 7.4 0 7.4 0L34.6 23.2 0 53.6z"/></symbol><symbol id="search" viewBox="0 0 92.3 92.3"><path d="M91.1 85.4L68.4 62.6c12.2-15.1 11.3-37.3-2.7-51.4C58.4 4 48.7 0 38.4 0 28.2 0 18.5 4 11.2 11.3c-15 15-15 39.4 0 54.4C18.5 73 28.1 77 38.4 77c8.9 0 17.3-3 24.2-8.5l22.8 22.8c.8.8 1.8 1.2 2.9 1.2 1 0 2.1-.4 2.9-1.2 1.5-1.7 1.5-4.3-.1-5.9zM17 59.9C5.2 48.1 5.2 28.8 17 17c5.7-5.7 13.3-8.9 21.4-8.9 8.1 0 15.7 3.2 21.4 8.9 11.8 11.8 11.8 31.1 0 42.9-5.7 5.7-13.3 8.9-21.4 8.9-8.1 0-15.7-3.2-21.4-8.9z"/></symbol></svg>