<?xml version="1.0" encoding="UTF-8"?><!DOCTYPE svg PUBLIC "-//W3C//DTD SVG 1.1//EN" "http://www.w3.org/Graphics/SVG/1.1/DTD/svg11.dtd"><svg xmlns="http://www.w3.org/2000/svg"><symbol id="alignleft" viewBox="0 0 20 18"><style>.st0{fill:none;stroke-width:2;stroke-miterlimit:10}</style><path class="st0" d="M0 1h20M0 5h15M0 9h20M0 13h15M0 17h20"/></symbol><symbol id="arrow-right-circle" viewBox="0 0 78.6 78.6"><path d="M39.3 0C17.6 0 0 17.6 0 39.3 0 61 17.6 78.6 39.3 78.6 61 78.6 78.6 61 78.6 39.3 78.6 17.6 61 0 39.3 0zm10.8 39.2l-.4.3-15.5 18.9-2.7-2.2 14-17.1-14-17.1 2.7-2.2 15.5 18.9.4.3v.2z"/></symbol><symbol id="arrow-right" viewBox="0 0 78.6 78.6"><path d="M50.1 39.2V39l-.4-.3-15.5-18.9-2.7 2.2 14 17.1-14 17.1 2.7 2.2 15.5-18.9z"/></symbol><symbol id="bygga" viewBox="0 0 87.3 83.4"><path d="M86.7 24.1c-.3-.3-.8-.9-1.4-1.4s-1.4-1.3-2.4-1.8c-.9-.6-2.1-1.1-3.3-1.6-1.2-.5-2.6-.8-4-1-1.5-.3-2.9-.3-4.5-.2-1.5.1-3 .3-4.6.7-1.5.4-2.9.9-4.4 1.5-1.4.7-2.7 1.4-3.9 2.3-1.2.9-2.4 1.8-3.4 2.8-2 2-3.6 4.4-4.6 6.6-.5 1.1-.9 2.2-1.2 3.3-.3 1-.5 2-.6 2.8-.1.4-.1.7-.1 1.1.4-.3.7-.6 1.2-1 2.1-1.7 5-3.8 8.1-5.6 1.6-.9 3.2-1.7 4.7-2.4.8-.3 1.5-.6 2.3-.9l2.1-.6c.7-.1 1.3-.3 1.8-.4.5-.1 1-.1 1.4-.2.8-.1 1.2-.1 1.2-.1s-.4.1-1.2.2c-.4.1-.8.1-1.4.3-.5.2-1.1.3-1.7.5s-1.3.5-2 .8-1.4.7-2.1 1c-1.5.8-3 1.7-4.4 2.7-2.9 2-5.6 4.3-7.5 6.1L49.4 41c.4.1 1 .2 1.6.2.8.1 1.8.2 2.8.3s2.1.1 3.2.1 2.3-.1 3.5-.2c1.2-.1 2.4-.3 3.5-.5 1.2-.3 2.3-.5 3.4-.9s2.2-.8 3.3-1.3c2.1-.9 4-2.1 5.8-3.4.9-.6 1.7-1.4 2.5-2.1.8-.7 1.6-1.5 2.4-2.2.7-.7 1.5-1.4 2.2-2.2.7-.7 1.3-1.4 1.9-1.9.5-.5 1-1.1 1.3-1.4.3-.4.5-.6.5-.6l-.6-.8zM47.3 29.8c-.9-1.5-1.7-3.2-2.4-4.7-.3-.8-.6-1.5-.9-2.3l-.6-2.1c-.1-.7-.3-1.3-.4-1.8-.1-.5-.1-1-.2-1.4-.1-.8-.1-1.2-.1-1.2s.1.4.2 1.2c.1.4.1.8.3 1.4.2.5.3 1.1.5 1.7s.5 1.3.8 2 .7 1.4 1 2.1c.8 1.4 1.7 3 2.7 4.4.4.6.9 1.2 1.3 1.7 1.6-3 3.6-5.7 5.9-8.1-.2-1-.5-1.9-.8-2.8-.4-1.1-.8-2.2-1.3-3.3-.9-2.1-2.1-4-3.4-5.8-.6-.9-1.4-1.7-2.1-2.5-.7-.8-1.5-1.6-2.2-2.4-.7-.7-1.4-1.5-2.2-2.2-.7-.7-1.4-1.3-1.9-1.9-.5-.5-1.1-1-1.4-1.3-.4-.3-.6-.5-.6-.5s-.2.2-.6.5c-.3.3-.9.8-1.4 1.4-.5.6-1.3 1.4-1.8 2.4-.6.9-1.1 2.1-1.6 3.3s-.8 2.6-1 4c-.3 1.5-.3 2.9-.2 4.5.1 1.5.3 3 .7 4.6.4 1.5.9 2.9 1.5 4.4.7 1.4 1.4 2.7 2.3 3.9.9 1.2 1.8 2.4 2.8 3.4 2 2 4.4 3.6 6.6 4.6.1 0 .2.1.3.1.5-1.7 1.1-3.3 1.9-4.9-.7-.8-1.2-1.6-1.7-2.4zM9.3 81.9s-.1 1.5 1.4 1.5h17.1v-14s-.2-2.3 2-2.3h7.1c2.7 0 2.5 2.3 2.5 2.3v14h16.8c1.9 0 1.8-1.9 1.8-1.9V55.6l-23.6-21-25.1 21v26.3z"/><path d="M0 53.6s2.1 3.9 6.8 0l27.8-23.5 26 23.3c5.4 3.9 7.4 0 7.4 0L34.6 23.2 0 53.6z"/></symbol><symbol id="exclamation-sign" viewBox="0 0 438.533 438.533"><path d="M409.133 109.203c-19.608-33.592-46.205-60.189-79.798-79.796C295.736 9.801 259.058 0 219.273 0c-39.781 0-76.466 9.801-110.063 29.407-33.595 19.604-60.192 46.201-79.8 79.796C9.801 142.8 0 179.489 0 219.267s9.804 76.463 29.407 110.062c19.607 33.585 46.204 60.189 79.799 79.798 33.597 19.605 70.283 29.407 110.063 29.407s76.47-9.802 110.065-29.407c33.593-19.602 60.189-46.206 79.795-79.798 19.603-33.599 29.403-70.287 29.403-110.062.001-39.778-9.8-76.472-29.399-110.064zM255.82 356.021c0 2.669-.862 4.9-2.573 6.707s-3.806 2.711-6.283 2.711h-54.818c-2.472 0-4.663-.952-6.565-2.854-1.904-1.903-2.854-4.093-2.854-6.563V301.78c0-2.478.95-4.668 2.854-6.571 1.903-1.902 4.093-2.851 6.565-2.851h54.818c2.478 0 4.579.907 6.283 2.707 1.711 1.817 2.573 4.045 2.573 6.715v54.241zm-.574-98.209c-.192 1.902-1.188 3.568-2.991 4.996-1.813 1.424-4.045 2.135-6.708 2.135h-52.822c-2.666 0-4.95-.711-6.853-2.135-1.904-1.428-2.857-3.094-2.857-4.996L178.162 80.51c0-2.288.95-3.997 2.852-5.14 1.906-1.521 4.19-2.284 6.854-2.284h62.819c2.666 0 4.948.76 6.851 2.284 1.903 1.143 2.848 2.856 2.848 5.14l-5.14 177.302z"/></symbol><symbol id="external" viewBox="0 0 511.626 511.627"><path d="M392.857 292.354h-18.274c-2.669 0-4.859.855-6.563 2.573-1.718 1.708-2.573 3.897-2.573 6.563v91.361c0 12.563-4.47 23.315-13.415 32.262-8.945 8.945-19.701 13.414-32.264 13.414H82.224c-12.562 0-23.317-4.469-32.264-13.414-8.945-8.946-13.417-19.698-13.417-32.262V155.31c0-12.562 4.471-23.313 13.417-32.259 8.947-8.947 19.702-13.418 32.264-13.418h200.994c2.669 0 4.859-.859 6.57-2.57 1.711-1.713 2.566-3.9 2.566-6.567V82.221c0-2.662-.855-4.853-2.566-6.563-1.711-1.713-3.901-2.568-6.57-2.568H82.224c-22.648 0-42.016 8.042-58.102 24.125C8.042 113.297 0 132.665 0 155.313v237.542c0 22.647 8.042 42.018 24.123 58.095 16.086 16.084 35.454 24.13 58.102 24.13h237.543c22.647 0 42.017-8.046 58.101-24.13 16.085-16.077 24.127-35.447 24.127-58.095v-91.358c0-2.669-.856-4.859-2.574-6.57-1.713-1.718-3.903-2.573-6.565-2.573z"/><path d="M506.199 41.971c-3.617-3.617-7.905-5.424-12.85-5.424H347.171c-4.948 0-9.233 1.807-12.847 5.424-3.617 3.615-5.428 7.898-5.428 12.847s1.811 9.233 5.428 12.85l50.247 50.248-186.147 186.151c-1.906 1.903-2.856 4.093-2.856 6.563 0 2.479.953 4.668 2.856 6.571l32.548 32.544c1.903 1.903 4.093 2.852 6.567 2.852s4.665-.948 6.567-2.852l186.148-186.148 50.251 50.248c3.614 3.617 7.898 5.426 12.847 5.426s9.233-1.809 12.851-5.426c3.617-3.616 5.424-7.898 5.424-12.847V54.818c-.001-4.952-1.814-9.232-5.428-12.847z"/></symbol><symbol id="facebook" viewBox="0 0 470.513 470.513"><path d="M271.521 154.17v-40.541c0-6.086.28-10.8.849-14.13.567-3.335 1.857-6.615 3.859-9.853 1.999-3.236 5.236-5.47 9.706-6.708 4.476-1.24 10.424-1.858 17.85-1.858h40.539V0h-64.809c-37.5 0-64.433 8.897-80.803 26.691-16.368 17.798-24.551 44.014-24.551 78.658v48.82h-48.542v81.086h48.539v235.256h97.362V235.256h64.805l8.566-81.086h-73.37z"/></symbol><symbol id="home" viewBox="0 0 460.298 460.297"><path d="M230.149 120.939L65.986 256.274c0 .191-.048.472-.144.855-.094.38-.144.656-.144.852v137.041c0 4.948 1.809 9.236 5.426 12.847 3.616 3.613 7.898 5.431 12.847 5.431h109.63V303.664h73.097v109.64h109.629c4.948 0 9.236-1.814 12.847-5.435 3.617-3.607 5.432-7.898 5.432-12.847V257.981c0-.76-.104-1.334-.288-1.707L230.149 120.939z"/><path d="M457.122 225.438L394.6 173.476V56.989c0-2.663-.856-4.853-2.574-6.567-1.704-1.712-3.894-2.568-6.563-2.568h-54.816c-2.666 0-4.855.856-6.57 2.568-1.711 1.714-2.566 3.905-2.566 6.567v55.673l-69.662-58.245c-6.084-4.949-13.318-7.423-21.694-7.423-8.375 0-15.608 2.474-21.698 7.423L3.172 225.438c-1.903 1.52-2.946 3.566-3.14 6.136-.193 2.568.472 4.811 1.997 6.713l17.701 21.128c1.525 1.712 3.521 2.759 5.996 3.142 2.285.192 4.57-.476 6.855-1.998L230.149 95.817l197.57 164.741c1.526 1.328 3.521 1.991 5.996 1.991h.858c2.471-.376 4.463-1.43 5.996-3.138l17.703-21.125c1.522-1.906 2.189-4.145 1.991-6.716-.195-2.563-1.242-4.609-3.141-6.132z"/></symbol><symbol id="kommun" viewBox="0 0 80 51"><circle cx="10" cy="5" r="5"/><circle cx="40" cy="5" r="5"/><path d="M35 11c-.6 0-1.3.2-1.8.7L25 20l-8.2-8.2c-.5-.6-1.2-.8-1.8-.8H5c-2.8 0-5 2.2-5 5v10c0 2.8 2.2 5 5 5v20h10V17l8.2 8.2c.5.5 1.1.7 1.8.7s1.3-.3 1.8-.7L35 17v34h10V17l8.2 8.2c.5.5 1.1.7 1.8.7s1.3-.3 1.8-.7L65 17v34h10V31c2.8 0 5-2.2 5-5V16c0-2.8-2.2-5-5-5H65c-.6 0-1.3.2-1.8.7L55 20l-8.2-8.2c-.5-.6-1.2-.8-1.8-.8H35z"/><circle cx="40" cy="5" r="5"/><circle cx="70" cy="5" r="5"/></symbol><symbol id="linkedin" viewBox="0 0 438.536 438.535"><path d="M5.424 145.895H99.64v282.932H5.424zM408.842 171.739c-19.791-21.604-45.967-32.408-78.512-32.408-11.991 0-22.891 1.475-32.695 4.427-9.801 2.95-18.079 7.089-24.838 12.419-6.755 5.33-12.135 10.278-16.129 14.844-3.798 4.337-7.512 9.389-11.136 15.104v-40.232h-93.935l.288 13.706c.193 9.139.288 37.307.288 84.508 0 47.205-.19 108.777-.572 184.722h93.931V270.942c0-9.705 1.041-17.412 3.139-23.127 4-9.712 10.037-17.843 18.131-24.407 8.093-6.572 18.13-9.855 30.125-9.855 16.364 0 28.407 5.662 36.117 16.987 7.707 11.324 11.561 26.98 11.561 46.966V428.82h93.931V266.664c-.007-41.688-9.897-73.328-29.694-94.925zM53.103 9.708c-15.796 0-28.595 4.619-38.4 13.848C4.899 32.787 0 44.441 0 58.529 0 72.42 4.758 84.034 14.275 93.358c9.514 9.325 22.078 13.99 37.685 13.99h.571c15.99 0 28.887-4.661 38.688-13.99 9.801-9.324 14.606-20.934 14.417-34.829-.19-14.087-5.047-25.742-14.561-34.973C81.562 14.323 68.9 9.708 53.103 9.708z"/></symbol><symbol id="listen" viewBox="0 0 76.8 83"><path d="M47.7 59.7v-4.6c6.4-2.7 11.4-8.2 13.5-15v1.3c0 3.4 2.8 6.2 6.2 6.2h2.1c3.4 0 6.2-2.8 6.2-6.2V27c0-3.4-2.8-6.2-6.2-6.2h-.4C64.2 8.6 52.3 0 38.4 0S12.6 8.6 7.7 20.8h-.4c-3.4 0-6.2 2.8-6.2 6.2v14.5c0 3.4 2.8 6.2 6.2 6.2h2.1c3.4 0 6.2-2.8 6.2-6.2v-1.3c2.1 6.8 7.1 12.3 13.5 15v4.6C14.6 62.5 3.3 71.6 0 83h4.3C7.5 73.8 17 66.5 29.1 63.9c1.4-.3 2.7-.5 4.2-.7v-11c-1.5-.4-2.8-.9-4.2-1.6-6.2-3.3-10.4-9.9-10.4-17.4 0-10.9 8.8-19.7 19.7-19.7s19.7 8.8 19.7 19.7c0 7.5-4.2 14-10.4 17.4-1.3.7-2.7 1.2-4.2 1.6v11.1c1.4.2 2.8.4 4.2.7 12 2.5 21.5 9.8 24.7 19.1h4.3c-3.2-11.5-14.5-20.6-29-23.4zM38.4 9.3c-10.8 0-20 7.2-22.9 17.1-.2-2.3-1.6-4.2-3.6-5.1C16.5 11.2 26.6 4.1 38.4 4.1s21.9 7.1 26.5 17.2c-2 .9-3.4 2.8-3.6 5.1-2.9-9.8-12.1-17.1-22.9-17.1z"/></symbol><symbol id="logo" viewBox="0 0 277.4 110.3"><path d="M12.1 10s-2.5 4.4 1.9 5.6c5.6 1.4 11.6 2.3 17.2 4.5 1.6.6-.1 2.1-1.2 2-9.7-2.7-18.9-6-30-5.5 2.5 3 6.2 7.1 7 11.2 3.9-3.1 9.9-4.8 14.6-2.3l-5.6 2C7.2 30.8 1.2 40.1.3 49.1c-.8 10 4.5 18.7 13.3 23.2 10.5 5.6 27.4 3.2 32.2 14.4 1.1 2.7 1.1 8-1.2 11.2-4 5.1-9.7 6.6-16.4 5.8 0 0-7.9-1.1-12.5-4.6C8.9 94 7 87.2 6.1 79.6h-4c1 9.6 0 19.3-1.3 28.4l3.4.4s.9-2.4 1.9-3.8c.8-.8 2.1-1 3.1-.3 11.8 8.1 31 8.1 42.1.6 7.6-5.6 10.4-14.1 8.1-23C54.3 64 33.9 66 20.6 59.8c-4.4-1.7-8.9-6-8.9-11.2-.1-5.4 2.1-9.7 6.5-12.8 1.8-1.1 3.7-1.3 3.7-1.3-3.6 3.7-5.8 8-5.2 13.4.5 4.4 4.3 8.6 8.5 9.9 4.1 1.1 7.8-.5 10.9-2.9l-.4-1.9c-1.8.5-4.1.5-5.9 0-3.7-1.3-5.1-5-4.7-8.7.3-1.6 1.6-2.7 3.4-2.2 9.1 3.8 7.4 15.9 16 20.1 2.9 1 5.5.1 7.3-1.2 4.5-3.2 6.1-7.3 7.3-12.4-2.4 2.7-4.6 5.7-8.2 6.3-1.8.4-2.7 0-3.7-1.5-3.5-5.6-4.6-14.9-12.9-15.8-1.6 0-2-.1-5 .3 2.1-1.7 4.6-3.4 7.4-3.5 4.1-.1 8.4 2.7 10 5.5.8 1.6.6 4.1-.6 5.6l1.9 1.4c3.1-4 9.8-9.1 9.7-12.5-.5-6.6-10.5-10.6-16.4-12.9 0 0 1-2.6.5-4.5-1.1-2.6-3.6-3-5.9-3.7-4.3-1.2-11.2-1.8-14.4-4.6-3.2-2.8-1.7-5.8-.9-9C12.5 8.9 12.1 10 12.1 10zM38 23.9c1 .5 2 1.5 2.5 2.5l-9-1.5c1.8-1.3 4.4-2.3 6.5-1zM89.2 42.9c-.1-.1-.4-.3-.9-.6s-1.1-.6-1.8-.9c-.7-.3-1.5-.6-2.3-.8-.8-.2-1.7-.4-2.5-.4-1.1 0-2 .2-2.6.6-.6.4-.9 1-.9 1.7 0 .5.1.9.4 1.2.3.3.6.6 1.1.9.5.2 1.1.5 1.8.7.7.2 1.6.5 2.5.7 1.4.4 2.6.8 3.7 1.2 1.1.4 2 1 2.8 1.6.8.6 1.4 1.4 1.8 2.4.4.9.6 2 .6 3.3 0 1.6-.3 2.9-.9 4-.6 1.1-1.4 2-2.4 2.7-1 .7-2.1 1.2-3.4 1.5-1.3.3-2.6.5-3.9.5-1 0-2.1-.1-3.2-.2-1.1-.2-2.1-.4-3.2-.7-1-.3-2-.7-3-1.1-1-.4-1.9-.9-2.7-1.5l2.9-5.7c.1.1.5.4 1.1.8.6.4 1.3.7 2.1 1.1.9.4 1.8.7 2.9 1 1.1.3 2.1.4 3.2.4 2.3 0 3.5-.7 3.5-2.1 0-.5-.2-1-.5-1.3-.3-.3-.8-.7-1.4-.9-.6-.3-1.3-.5-2.1-.8-.8-.2-1.7-.5-2.7-.8-1.3-.4-2.4-.8-3.4-1.3s-1.7-1-2.4-1.6c-.6-.6-1.1-1.3-1.4-2.1-.3-.8-.5-1.7-.5-2.8 0-1.5.3-2.8.8-3.9.6-1.1 1.3-2.1 2.3-2.9 1-.8 2.1-1.4 3.3-1.8 1.3-.4 2.6-.6 4-.6 1 0 2 .1 2.9.3 1 .2 1.9.4 2.7.7.9.3 1.7.6 2.4 1 .8.4 1.5.7 2.1 1.1l-2.8 5.4zM101.9 63.2c-2.1 0-3.7-.7-4.8-2-1.1-1.3-1.7-3.3-1.7-5.9V42h6.4v12c0 1.3.2 2.2.8 2.9.5.7 1.2 1 2.1 1 .8 0 1.7-.2 2.5-.7.8-.4 1.5-1.2 2.1-2.3V42h6.3v13.7c0 .6.1 1.1.4 1.3.2.2.7.4 1.3.5v5.4c-.7.1-1.2.2-1.7.3-.5 0-.9.1-1.3.1-2.2 0-3.5-.9-3.8-2.7l-.1-1.3c-1 1.4-2.1 2.4-3.6 3-1.6.6-3.1.9-4.9.9zM140.4 62.8H134V51.1c0-1.4-.3-2.4-.8-3-.5-.6-1.2-.9-2-.9-.5 0-.9.1-1.4.3-.5.2-.9.4-1.3.8-.4.3-.8.7-1.1 1.2-.3.5-.6.9-.8 1.5v12h-6.4V42h5.7v3.5c.8-1.2 1.9-2.2 3.3-2.9 1.4-.7 3-1 4.8-1 1.4 0 2.4.2 3.3.7.8.5 1.5 1.1 1.9 1.9.5.8.8 1.6.9 2.6.1.9.2 1.8.2 2.7v13.3zM152.8 63.2c-1.4 0-2.7-.3-4-.8-1.2-.5-2.2-1.3-3.1-2.3-.9-1-1.6-2.1-2-3.4-.5-1.3-.7-2.7-.7-4.3 0-1.5.2-2.9.7-4.3.5-1.3 1.1-2.5 1.9-3.4.8-1 1.8-1.7 2.9-2.3 1.1-.6 2.4-.8 3.7-.8 1.4 0 2.7.3 3.9 1 1.2.7 2.1 1.6 2.7 2.8V33.8h6.4v21.8c0 .6.1 1.1.4 1.3.2.2.7.4 1.3.5v5.4c-.7.1-1.2.2-1.7.3-.5 0-.9.1-1.3.1-2.2-.1-3.5-.9-3.8-2.7l-.1-1.1c-.8 1.3-1.8 2.3-3 2.9-1.4.6-2.7.9-4.2.9zm1.8-5.4c.9 0 1.7-.3 2.5-.8s1.4-1.2 1.9-2.1v-4.4c-.4-1.1-1-1.9-1.9-2.6-.9-.7-1.8-1-2.8-1-.7 0-1.3.1-1.9.5-.6.3-1.1.7-1.5 1.2-.4.5-.7 1.1-1 1.7-.2.7-.3 1.4-.3 2.1 0 1.6.5 2.8 1.4 3.9.9 1 2.1 1.5 3.6 1.5zM178.7 63.2c-.9 0-1.8-.1-2.7-.2-.9-.1-1.9-.3-2.8-.5-.9-.2-1.8-.5-2.7-.8-.9-.3-1.6-.7-2.2-1.1l2.5-4.3c1.4.8 2.7 1.4 4 1.8 1.3.4 2.5.6 3.7.6.9 0 1.6-.1 2.1-.4.5-.3.7-.7.7-1.3 0-.6-.3-1-1-1.3-.7-.3-1.8-.7-3.4-1.1-1.4-.4-2.6-.7-3.6-1.1-1-.4-1.8-.8-2.4-1.2-.6-.5-1-1-1.3-1.6-.3-.6-.4-1.3-.4-2.1 0-1.1.2-2 .7-2.9.4-.9 1-1.6 1.8-2.2.8-.6 1.7-1.1 2.7-1.4 1.1-.3 2.2-.5 3.4-.5 1.5 0 2.9.2 4.5.7 1.5.4 3 1 4.5 1.8l-2.5 4c-1.3-.7-2.5-1.2-3.5-1.6-1-.3-2-.5-3-.5-.8 0-1.4.1-2 .4-.5.3-.8.7-.8 1.3 0 .3.1.5.2.7.1.2.4.4.7.6.3.2.7.3 1.2.5.5.1 1.1.3 1.9.5 1.5.4 2.8.8 3.9 1.2 1.1.4 1.9.8 2.6 1.3.7.5 1.1 1 1.4 1.7.3.6.4 1.4.4 2.3 0 1-.2 2-.6 2.8-.4.8-1 1.5-1.8 2.1-.8.6-1.7 1-2.8 1.3-.8.3-2.1.5-3.4.5zM195.1 62.8L187.7 42h6.5l4.6 15.8 4.6-15.8h5.9L202 62.8h-6.9zM216.6 63.2c-1 0-2-.2-2.9-.5-.9-.3-1.7-.8-2.3-1.4-.6-.6-1.1-1.3-1.5-2.1-.4-.8-.6-1.7-.6-2.6 0-1 .2-2 .7-2.8.4-.8 1.1-1.6 1.8-2.2.8-.6 1.7-1.1 2.8-1.4 1.1-.3 2.3-.5 3.6-.5.9 0 1.7.1 2.5.2s1.5.4 2.1.7v-1c0-2.4-1.4-3.6-4.2-3.6-1.1 0-2.2.2-3.3.6-1 .4-2.1 1-3.3 1.7l-1.9-4c1.4-.9 2.8-1.6 4.3-2 1.5-.5 3.1-.7 4.7-.7 3.2 0 5.6.7 7.3 2.2 1.7 1.5 2.6 3.7 2.6 6.5v5.4c0 .6.1 1.1.4 1.3.2.2.7.4 1.3.5v5.4c-.6.1-1.2.2-1.7.3-.5 0-1 .1-1.4.1-1.2 0-2-.3-2.7-.7-.6-.4-1-1.1-1.2-1.9l-.1-1c-.9 1.2-2 2.1-3.3 2.7-.9.5-2.2.8-3.7.8zm1.9-4.6c.7 0 1.4-.1 2-.4.6-.2 1.2-.6 1.6-1 .6-.5.9-1 .9-1.5v-2c-.5-.2-1.2-.4-1.8-.5-.6-.1-1.3-.2-1.8-.2-1.2 0-2.1.3-2.9.8-.8.5-1.1 1.2-1.1 2.1 0 .8.3 1.4.9 1.9.6.6 1.3.8 2.2.8zM233.7 33.8h6.4V55c0 1.6.7 2.4 2.1 2.4.3 0 .6-.1 1-.2s.7-.2 1-.4l.8 5.2c-.8.4-1.7.7-2.7.9-1 .2-2 .3-2.9.3-1.8 0-3.2-.5-4.2-1.4-1-1-1.5-2.3-1.5-4.1V33.8zM246.7 33.8h6.4V55c0 1.6.7 2.4 2.1 2.4.3 0 .6-.1 1-.2s.7-.2 1.1-.4l.8 5.1c-.8.4-1.7.7-2.7.9-1 .2-2 .3-2.9.3-1.8 0-3.2-.5-4.2-1.4-1-1-1.5-2.3-1.5-4.1V33.8zM268.6 63.2c-.9 0-1.8-.1-2.7-.2-.9-.1-1.9-.3-2.8-.5-.9-.2-1.8-.5-2.7-.8-.8-.3-1.6-.7-2.2-1.1l2.5-4.3c1.4.8 2.7 1.4 4 1.8 1.3.4 2.5.6 3.7.6.9 0 1.6-.1 2.1-.4.5-.3.7-.7.7-1.3 0-.6-.3-1-1-1.3-.7-.3-1.8-.7-3.4-1.1-1.4-.4-2.6-.7-3.6-1.1-1-.4-1.8-.8-2.4-1.2-.6-.5-1-1-1.3-1.6-.3-.6-.4-1.3-.4-2.1 0-1.1.2-2 .7-2.9.4-.9 1-1.6 1.8-2.2.8-.6 1.7-1.1 2.7-1.4 1-.3 2.2-.5 3.4-.5 1.5 0 2.9.2 4.5.7 1.5.4 3 1 4.5 1.8l-2.5 4c-1.3-.7-2.5-1.2-3.5-1.6-1-.3-2-.5-3-.5-.8 0-1.4.1-2 .4-.5.3-.8.7-.8 1.3 0 .3.1.5.2.7.1.2.3.4.7.6.3.2.7.3 1.2.5.5.1 1.1.3 1.9.5 1.5.4 2.8.8 3.9 1.2 1.1.4 1.9.8 2.6 1.3.7.5 1.1 1 1.4 1.7.3.6.4 1.4.4 2.3 0 1-.2 2-.6 2.8-.4.8-1 1.5-1.8 2.1-.8.6-1.7 1-2.8 1.3-.9.3-2.1.5-3.4.5zM85.8 98.5l-5.4-8.4-2.2 2.3v6.1h-6.3v-29h6.3v16.8l7.1-8.7h6.8l-7.5 9 8.1 11.9h-6.9z"/><path d="M102.8 98.9c-1.8 0-3.4-.3-4.8-.9-1.4-.6-2.6-1.4-3.5-2.4-1-1-1.7-2.1-2.2-3.5-.5-1.3-.7-2.7-.7-4.1 0-1.4.2-2.8.7-4.1.5-1.3 1.2-2.5 2.2-3.5 1-1 2.1-1.8 3.5-2.4 1.4-.6 3-.9 4.8-.9 1.8 0 3.3.3 4.7.9 1.4.6 2.5 1.4 3.5 2.4s1.7 2.1 2.2 3.5c.5 1.3.8 2.7.8 4.1 0 1.4-.2 2.8-.7 4.1-.5 1.3-1.2 2.5-2.2 3.5-1 1-2.1 1.8-3.5 2.4-1.4.6-3 .9-4.8.9zm-4.6-10.8c0 1.6.4 3 1.3 3.9.9 1 2 1.5 3.3 1.5.7 0 1.3-.1 1.8-.4.6-.3 1-.6 1.5-1.1.4-.5.7-1.1 1-1.7.2-.7.4-1.4.4-2.2 0-1.6-.4-3-1.3-4s-2-1.5-3.3-1.5c-.7 0-1.3.1-1.9.4-.6.3-1.1.6-1.5 1.1-.4.5-.7 1-1 1.7-.2.8-.3 1.5-.3 2.3zM149.6 98.5h-6.4V86.8c0-1.4-.2-2.4-.7-3-.5-.6-1.1-.9-2-.9-.8 0-1.7.3-2.5 1s-1.4 1.6-1.8 2.7v11.9h-6.4V86.8c0-1.4-.2-2.4-.7-3-.5-.6-1.1-.9-2-.9-.9 0-1.7.3-2.5 1s-1.4 1.6-1.8 2.7v11.9h-6.4V77.7h5.7v3.5c.8-1.3 1.8-2.2 3.1-2.9 1.3-.7 2.9-1 4.6-1 .8 0 1.6.1 2.3.3.7.2 1.2.5 1.7.9s.9.8 1.2 1.3c.3.5.5 1 .7 1.6.8-1.3 1.8-2.3 3.1-3 1.3-.7 2.8-1.1 4.4-1.1 1.3 0 2.4.2 3.2.7.8.5 1.4 1.1 1.9 1.9.5.8.8 1.6.9 2.6.1.9.2 1.8.2 2.7v13.3zM186.3 98.5h-6.4V86.8c0-1.4-.2-2.4-.7-3-.5-.6-1.1-.9-2-.9-.9 0-1.7.3-2.5 1s-1.4 1.6-1.8 2.7v11.9h-6.4V86.8c0-1.4-.2-2.4-.7-3-.5-.6-1.1-.9-2-.9-.8 0-1.7.3-2.5 1s-1.4 1.6-1.8 2.7v11.9h-6.3V77.7h5.7v3.5c.8-1.3 1.8-2.2 3.1-2.9 1.3-.7 2.9-1 4.6-1 .8 0 1.6.1 2.3.3.7.2 1.2.5 1.7.9s.8.8 1.2 1.3c.3.5.5 1 .7 1.6.8-1.3 1.8-2.3 3.1-3 1.3-.7 2.8-1.1 4.4-1.1 1.3 0 2.4.2 3.2.7.8.5 1.4 1.1 1.9 1.9.5.8.8 1.6.9 2.6.1.9.2 1.8.2 2.7v13.3zM196.4 98.9c-2.1 0-3.7-.7-4.8-2-1.1-1.3-1.7-3.3-1.7-5.9V77.7h6.3v11.9c0 1.3.3 2.2.8 2.9.5.7 1.2 1 2.1 1 .8 0 1.7-.2 2.5-.7.8-.4 1.5-1.2 2.1-2.3V77.7h6.4v13.7c0 .6.1 1.1.4 1.3.2.3.7.4 1.3.5v5.4c-.7.1-1.2.2-1.7.3-.5 0-.9.1-1.3.1-2.2 0-3.5-.9-3.9-2.7l-.1-1.3c-1 1.4-2.1 2.4-3.6 3-1.5.6-3.1.9-4.8.9zM234.9 98.5h-6.4V86.8c0-1.4-.3-2.4-.8-3-.5-.6-1.2-.9-2-.9-.5 0-.9.1-1.4.3-.5.2-.9.4-1.3.8-.4.3-.8.7-1.1 1.2-.3.5-.6.9-.8 1.5v11.9h-6.4V77.7h5.7v3.5c.8-1.2 1.9-2.2 3.3-2.9 1.4-.7 3-1 4.8-1 1.4 0 2.4.2 3.3.7.8.5 1.5 1.1 1.9 1.9.5.8.7 1.6.9 2.6.1.9.2 1.8.2 2.7v13.3z"/></symbol><symbol id="menu" viewBox="0 0 438.533 438.533"><path d="M420.265 328.897H18.274c-4.952 0-9.235 1.813-12.851 5.428C1.807 337.938 0 342.224 0 347.172v36.548c0 4.949 1.807 9.23 5.424 12.848 3.619 3.613 7.902 5.424 12.851 5.424h401.991c4.948 0 9.229-1.811 12.847-5.424 3.614-3.617 5.421-7.898 5.421-12.848v-36.548c0-4.948-1.8-9.233-5.421-12.847-3.618-3.614-7.896-5.428-12.848-5.428zM433.112 41.968c-3.617-3.617-7.898-5.426-12.847-5.426H18.274c-4.952 0-9.235 1.809-12.851 5.426C1.807 45.583 0 49.866 0 54.813V91.36c0 4.949 1.807 9.229 5.424 12.847 3.619 3.618 7.902 5.424 12.851 5.424h401.991c4.948 0 9.229-1.807 12.847-5.424 3.614-3.617 5.421-7.898 5.421-12.847V54.813c-.001-4.947-1.805-9.23-5.422-12.845zM420.265 182.72H18.274c-4.952 0-9.235 1.809-12.851 5.426C1.807 191.761 0 196.044 0 200.992v36.547c0 4.948 1.807 9.236 5.424 12.847 3.619 3.614 7.902 5.428 12.851 5.428h401.991c4.948 0 9.229-1.813 12.847-5.428 3.614-3.61 5.421-7.898 5.421-12.847v-36.547c0-4.948-1.807-9.231-5.421-12.847-3.618-3.617-7.896-5.425-12.848-5.425z"/></symbol><symbol id="message" viewBox="0 0 511.626 511.626"><path d="M49.106 178.729c6.472 4.567 25.981 18.131 58.528 40.685 32.548 22.554 57.482 39.92 74.803 52.099 1.903 1.335 5.946 4.237 12.131 8.71 6.186 4.476 11.326 8.093 15.416 10.852 4.093 2.758 9.041 5.852 14.849 9.277 5.806 3.422 11.279 5.996 16.418 7.7 5.14 1.718 9.898 2.569 14.275 2.569h.575c4.377 0 9.137-.852 14.277-2.569 5.137-1.704 10.615-4.281 16.416-7.7 5.804-3.429 10.752-6.52 14.845-9.277 4.093-2.759 9.229-6.376 15.417-10.852 6.184-4.477 10.232-7.375 12.135-8.71 17.508-12.179 62.051-43.11 133.615-92.79 13.894-9.703 25.502-21.411 34.827-35.116 9.332-13.699 13.993-28.07 13.993-43.105 0-12.564-4.523-23.319-13.565-32.264-9.041-8.947-19.749-13.418-32.117-13.418H45.679c-14.655 0-25.933 4.948-33.832 14.844C3.949 79.562 0 91.934 0 106.779c0 11.991 5.236 24.985 15.703 38.974 10.466 13.99 21.604 24.983 33.403 32.976z"/><path d="M483.072 209.275c-62.424 42.251-109.824 75.087-142.177 98.501-10.849 7.991-19.65 14.229-26.409 18.699-6.759 4.473-15.748 9.041-26.98 13.702-11.228 4.668-21.692 6.995-31.401 6.995h-.578c-9.707 0-20.177-2.327-31.405-6.995-11.228-4.661-20.223-9.229-26.98-13.702-6.755-4.47-15.559-10.708-26.407-18.699-25.697-18.842-72.995-51.68-141.896-98.501C17.987 202.047 8.375 193.762 0 184.437v226.685c0 12.57 4.471 23.319 13.418 32.265 8.945 8.949 19.701 13.422 32.264 13.422h420.266c12.56 0 23.315-4.473 32.261-13.422 8.949-8.949 13.418-19.694 13.418-32.265V184.437c-8.186 9.132-17.7 17.417-28.555 24.838z"/></symbol><symbol id="naringsliv" viewBox="0 0 90 68.7"><path d="M36.8 44.2l8.1 13.5 17.4-31.8 7.8 7L90 11.4l-4.3-3.9-16 17.3-9-8.2-16 29.4-6.3-10.3-35.3 26V0H.3v63.7L0 64l.3.5v4.1h3.1l.1.1.1-.1h84.3v-2.7H7.3z"/></symbol><symbol id="omsorg" viewBox="0 0 49.4 48"><path d="M49.3 12c.4 2.6.2 4.8-.4 6.7-2.8-3.2-6.9-5.2-11.4-5.2-8.4 0-15.3 6.9-15.3 15.3 0 5 2.4 9.5 6.2 12.3-2.1 2.7-3.7 5.3-3.8 7-.1-1.7-1.7-4.1-3.7-6.7-2-2.6-4.6-5.2-6.6-7.3-2.6-2.6-6.1-4.8-8.9-7.5C2 23.3-.6 19.3.3 12.8c.6-4.3 2.6-7.3 5.1-9.3C8.7.9 19.1-2.2 24.7 7.8l.1.6c1.7-4.6 4-6.8 8.1-8C38.1-1 44.4.9 47.5 6.6c.8 1.5 1.4 3.3 1.8 5.4z"/><path d="M37.9 18c6.3 0 11.5 5.1 11.5 11.5 0 6.3-5.1 11.4-11.5 11.4-6.3 0-11.5-5.1-11.5-11.4 0-6.4 5.2-11.5 11.5-11.5zm7 9.2h-4.2V23h-4.3v4.2h-4.2v4.3h4.2v4.2h4.3v-4.2h4.2v-4.3z"/></symbol><symbol id="percent" viewBox="0 0 1792 1792"><path d="M1408 1280q0-52-38-90t-90-38-90 38-38 90 38 90 90 38 90-38 38-90zM640 512q0-52-38-90t-90-38-90 38-38 90 38 90 90 38 90-38 38-90zm1024 768q0 159-112.5 271.5T1280 1664t-271.5-112.5T896 1280t112.5-271.5T1280 896t271.5 112.5T1664 1280zm-96-1088q0 20-13 38L499 1638q-19 26-51 26H288q-26 0-45-19t-19-45q0-20 13-38L1293 154q19-26 51-26h160q26 0 45 19t19 45zM896 512q0 159-112.5 271.5T512 896 240.5 783.5 128 512t112.5-271.5T512 128t271.5 112.5T896 512z"/></symbol><symbol id="print" viewBox="0 0 39.6 46.4"><path d="M30.2 10.1c.4 0 .8-.3.8-.8V.8c0-.4-.3-.8-.8-.8H9.5c-.4 0-.8.3-.8.8v8.5c.1.4.4.8.8.8s.8-.3.8-.8V1.5h19.1v7.8c0 .4.3.8.8.8zM36.1 16.6c0-.8-.6-1.4-1.4-1.4-.8 0-1.4.6-1.4 1.4s.6 1.4 1.4 1.4c.8 0 1.4-.6 1.4-1.4zM8.6 27.9v17.7c0 .4.3.8.8.8H25.9c.2 0 .4-.1.5-.2l4.4-4.4c.2-.2.2-.4.2-.6V27.9c0-.4-.3-.8-.8-.8H9.4c-.4 0-.8.3-.8.8zm18 15.9v-1.9h1.9l-1.9 1.9zM10.1 28.6h19.4v11.9h-3.7c-.4 0-.8.3-.8.8V45H10.1V28.6zM32.1 16.7c-.1-.8-.7-1.4-1.4-1.4-.8 0-1.4.6-1.4 1.4 0 .8.6 1.4 1.4 1.4.8 0 1.4-.6 1.4-1.4z"/><path d="M38.9 11.7H.8c-.4 0-.8.3-.8.8v23.1c0 .4.3.8.8.8h5.9c.4 0 .8-.3.8-.8 0-.4-.3-.8-.8-.8H1.5V13.2h36.6v21.7h-5.2c-.4 0-.8.3-.8.8 0 .4.3.8.8.8h5.9c.4 0 .8-.3.8-.8V12.4c0-.4-.3-.7-.7-.7z"/></symbol><symbol id="samhallsplanering" viewBox="0 0 100 70.9"><path d="M100 28.4v42.5H79.6c.1-.8.1-1.7.1-2.5 0-16.6-13.5-30.1-30.1-30.1s-30 13.5-30 30.1c0 .8.1 1.7.1 2.5H0V28.4h100zM29.7 16.3c-3.4 0-6.1 2.7-6.1 6.1 0 3.3 2.7 6 6.1 6 3.3 0 6-2.7 6-6 0-3.4-2.7-6.1-6-6.1zm0 9.3c-1.8 0-3.3-1.5-3.3-3.3 0-1.8 1.5-3.3 3.3-3.3 1.8 0 3.3 1.4 3.3 3.3-.1 1.8-1.5 3.3-3.3 3.3zM70.4 16.3c-3.3 0-6 2.7-6 6.1 0 3.3 2.7 6 6 6s6.1-2.7 6.1-6c0-3.4-2.7-6.1-6.1-6.1zm0 9.3c-1.8 0-3.3-1.5-3.3-3.3 0-1.8 1.5-3.3 3.3-3.3 1.8 0 3.3 1.4 3.3 3.3 0 1.8-1.5 3.3-3.3 3.3z"/><path d="M82.2 17.8c0-5.9-3.7-6.6-3.7-6.6-5.4-.7-14.7-1.1-14.7-1.1C63 8.6 59.1 0 56.8 0H36.7C33.8 0 29 8.4 28 10.3c0 0-3.7.6-5.4 1-1 .2-3.6.3-3.6 7.7h-2.3v3.4h5.6c0-4.1 3.3-7.5 7.5-7.5 4.1 0 7.4 3.3 7.4 7.5H63c0-4.1 3.3-7.5 7.4-7.5 4.1 0 7.5 3.3 7.5 7.5h5.5v-4.5l-1.2-.1zM46.5 9.5H34.9c1.6-4.9 4.5-8.4 5.7-8.4h5.9v8.4zm2.2 0V1.1h7.5c1.5 0 4.9 7.1 5.9 8.9l-13.4-.5z"/></symbol><symbol id="search" viewBox="0 0 92.3 92.3"><path d="M91.1 85.4L68.4 62.6c12.2-15.1 11.3-37.3-2.7-51.4C58.4 4 48.7 0 38.4 0 28.2 0 18.5 4 11.2 11.3c-15 15-15 39.4 0 54.4C18.5 73 28.1 77 38.4 77c8.9 0 17.3-3 24.2-8.5l22.8 22.8c.8.8 1.8 1.2 2.9 1.2 1 0 2.1-.4 2.9-1.2 1.5-1.7 1.5-4.3-.1-5.9zM17 59.9C5.2 48.1 5.2 28.8 17 17c5.7-5.7 13.3-8.9 21.4-8.9 8.1 0 15.7 3.2 21.4 8.9 11.8 11.8 11.8 31.1 0 42.9-5.7 5.7-13.3 8.9-21.4 8.9-8.1 0-15.7-3.2-21.4-8.9z"/></symbol><symbol id="share" viewBox="0 0 63 88.4"><path class="st0" d="M31.5 3.2"/><path d="M39.8 25.4v3.3h19.9v56.4H3.3V28.7h19.9v-3.3H0v63h63v-63z"/><path d="M29.8 33.8v23.1h3.3V6.3l11 11 2.3-2.3-15-15-15 15 2.3 2.3 11-11v14.6l.1 12.9zm1.7-30.6z"/></symbol><symbol id="telephone" viewBox="0 0 401.998 401.998"><path d="M401.129 311.475c-1.137-3.426-8.371-8.473-21.697-15.129-3.61-2.098-8.754-4.949-15.41-8.566a1437.412 1437.412 0 0 1-18.13-9.996 605.612 605.612 0 0 1-15.276-8.846c-.76-.571-3.139-2.234-7.136-5-4.001-2.758-7.375-4.805-10.14-6.14-2.759-1.327-5.473-1.995-8.138-1.995-3.806 0-8.56 2.714-14.268 8.135a139.01 139.01 0 0 0-15.7 17.706c-4.757 6.379-9.802 12.275-15.126 17.7-5.332 5.427-9.713 8.138-13.135 8.138-1.718 0-3.86-.479-6.427-1.424-2.566-.951-4.518-1.766-5.858-2.423-1.328-.671-3.607-1.999-6.845-4.004-3.244-1.999-5.048-3.094-5.428-3.285-26.075-14.469-48.438-31.029-67.093-49.676-18.649-18.658-35.211-41.019-49.676-67.097-.19-.381-1.287-2.19-3.284-5.424-2-3.237-3.333-5.518-3.999-6.854-.666-1.331-1.475-3.283-2.425-5.852s-1.427-4.709-1.427-6.424c0-3.424 2.713-7.804 8.138-13.134 5.424-5.327 11.326-10.373 17.7-15.128a138.95 138.95 0 0 0 17.701-15.699c5.424-5.711 8.136-10.467 8.136-14.273 0-2.663-.666-5.378-1.997-8.137-1.332-2.765-3.378-6.139-6.139-10.138-2.762-3.997-4.427-6.374-4.999-7.139a627.13 627.13 0 0 1-8.848-15.271 1441.4 1441.4 0 0 1-9.995-18.131c-3.615-6.658-6.468-11.799-8.564-15.415C98.986 9.233 93.943 1.997 90.516.859 89.183.288 87.183 0 84.521 0c-5.142 0-11.85.95-20.129 2.856-8.282 1.903-14.799 3.899-19.558 5.996-9.517 3.995-19.604 15.605-30.264 34.826C4.863 61.566.01 79.271.01 96.78c0 5.135.333 10.131.999 14.989.666 4.853 1.856 10.326 3.571 16.418 1.712 6.09 3.093 10.614 4.137 13.56 1.045 2.948 2.996 8.229 5.852 15.845 2.852 7.614 4.567 12.275 5.138 13.988 6.661 18.654 14.56 35.307 23.695 49.964 15.03 24.362 35.541 49.539 61.521 75.521 25.981 25.98 51.153 46.49 75.517 61.526 14.655 9.134 31.314 17.032 49.965 23.698 1.714.568 6.375 2.279 13.986 5.141 7.614 2.854 12.897 4.805 15.845 5.852 2.949 1.048 7.474 2.43 13.559 4.145 6.098 1.715 11.566 2.905 16.419 3.576 4.856.657 9.853.996 14.989.996 17.508 0 35.214-4.856 53.105-14.562 19.219-10.656 30.826-20.745 34.823-30.269 2.102-4.754 4.093-11.273 5.996-19.555 1.909-8.278 2.857-14.985 2.857-20.126.006-2.673-.281-4.668-.855-6.012z"/></symbol><symbol id="twitter" viewBox="0 0 449.956 449.956"><path d="M449.956 85.657c-17.702 7.614-35.408 12.369-53.102 14.279 19.985-11.991 33.503-28.931 40.546-50.819-18.281 10.847-37.787 18.268-58.532 22.267-18.274-19.414-40.73-29.125-67.383-29.125-25.502 0-47.246 8.992-65.24 26.98-17.984 17.987-26.977 39.731-26.977 65.235 0 6.851.76 13.896 2.284 21.128-37.688-1.903-73.042-11.372-106.068-28.407C82.46 110.158 54.433 87.46 31.403 59.101c-8.375 14.272-12.564 29.787-12.564 46.536 0 15.798 3.711 30.456 11.138 43.97 7.422 13.512 17.417 24.455 29.98 32.831-14.849-.572-28.743-4.475-41.684-11.708v1.142c0 22.271 6.995 41.824 20.983 58.674 13.99 16.848 31.645 27.453 52.961 31.833a95.543 95.543 0 0 1-24.269 3.138c-5.33 0-11.136-.475-17.416-1.42 5.9 18.459 16.75 33.633 32.546 45.535 15.799 11.896 33.691 18.028 53.677 18.418-33.498 26.262-71.66 39.393-114.486 39.393-8.186 0-15.607-.373-22.27-1.139 42.827 27.596 90.03 41.394 141.612 41.394 32.738 0 63.478-5.181 92.21-15.557 28.746-10.369 53.297-24.267 73.665-41.686 20.362-17.415 37.925-37.448 52.674-60.097 14.75-22.651 25.738-46.298 32.977-70.946 7.23-24.653 10.848-49.344 10.848-74.092 0-5.33-.096-9.325-.287-11.991 18.087-13.127 33.504-29.023 46.258-47.672z"/></symbol><symbol id="uppleva" viewBox="0 0 22 17"><path d="M15.6 15.8c-1.4 0-2.7.9-4.1.9-1.4 0-2.8-.9-4.1-.9-1.6 0-2.7.6-3.4 1-.9.4-1.3-.4-.6-.8 0 0 1.3-1.1 4.1-1.1 1.5 0 2.6.8 4.1.8 1.6 0 2.6-.8 4.1-.8 2.6 0 4.1 1.1 4.1 1.1.7.5 0 1.2-.7.7-1-.4-1.4-.9-3.5-.9zM10 0s3.5 2.9 5.5 5.2 3.5 5.2 3.5 5.2l-7.5.6s.1-2.3 0-4.3C11.4 4.8 10 0 10 0zM7.8 9.2C6.7 11 5 12 5 12l5-.6L9.6 4s-.7 3.4-1.8 5.2zm-6 6.8s1.8-1.7 4.8-1.8 3.4.8 4.9.8 3.1-1 4.4-1.1c2.3-.1 4 1.2 4 1.2C22 15.1 22 11 22 11L0 13.2C.3 15.4 1.8 16 1.8 16z"/></symbol><symbol id="utbildning" viewBox="0 0 47.7 62.7"><path d="M12.9 0s4.5 1 6.6 3.3c2.1 2.2 2.8 6.7 2.8 6.7s-4.5-.6-7-3.3C12.8 4.1 12.9 0 12.9 0zM23.6 10V3.1l2.3 1-1.2 5.7z"/><g><path d="M42.6 14.3c-6.9-9-14.7-1.7-19.7-1.6-4.7.2-12.9-6.6-19.6 2.7-5 6.9-2.1 17.9.5 22 2.5 4.1 8 9.3 14.7 9.1 2.7-.1 3.8-1 5.1-1 1.4 0 2.5 1.1 5.2 1.1 6.5-.2 13.1-5.7 15.4-9.9 2.2-4.3 3.6-15.6-1.6-22.4zm-32.5 7.5c-1.4 2.2-.9 5.5-3.2 6-1.6.3-4.4-2.8-1.7-8.2 2.7-5.4 9-5.1 10-3.2 1.5 2.7-4 3.8-5.1 5.4zM45.9 50H1.8c-1 0-1.8.7-1.8 1.6v9.6c0 .9.8 1.6 1.8 1.6H46c1 0 1.8-.7 1.8-1.6v-9.6c-.1-.9-.9-1.6-1.9-1.6zm-37 10.8h-3v-9h3v9zm28 0h-1.5v-9h1.5v9zm5.4 0h-3.2v-9h3.2v9z"/></g></symbol></svg>