<?xml version="1.0" encoding="UTF-8"?><!DOCTYPE svg PUBLIC "-//W3C//DTD SVG 1.1//EN" "http://www.w3.org/Graphics/SVG/1.1/DTD/svg11.dtd"><svg xmlns="http://www.w3.org/2000/svg"><symbol id="bygga" viewBox="0 0 87.3 83.4"><path d="M86.7 24.1c-.3-.3-.8-.9-1.4-1.4s-1.4-1.3-2.4-1.8c-.9-.6-2.1-1.1-3.3-1.6-1.2-.5-2.6-.8-4-1-1.5-.3-2.9-.3-4.5-.2-1.5.1-3 .3-4.6.7-1.5.4-2.9.9-4.4 1.5-1.4.7-2.7 1.4-3.9 2.3-1.2.9-2.4 1.8-3.4 2.8-2 2-3.6 4.4-4.6 6.6-.5 1.1-.9 2.2-1.2 3.3-.3 1-.5 2-.6 2.8-.1.4-.1.7-.1 1.1.4-.3.7-.6 1.2-1 2.1-1.7 5-3.8 8.1-5.6 1.6-.9 3.2-1.7 4.7-2.4.8-.3 1.5-.6 2.3-.9l2.1-.6c.7-.1 1.3-.3 1.8-.4.5-.1 1-.1 1.4-.2.8-.1 1.2-.1 1.2-.1s-.4.1-1.2.2c-.4.1-.8.1-1.4.3-.5.2-1.1.3-1.7.5s-1.3.5-2 .8-1.4.7-2.1 1c-1.5.8-3 1.7-4.4 2.7-2.9 2-5.6 4.3-7.5 6.1L49.4 41c.4.1 1 .2 1.6.2.8.1 1.8.2 2.8.3s2.1.1 3.2.1 2.3-.1 3.5-.2c1.2-.1 2.4-.3 3.5-.5 1.2-.3 2.3-.5 3.4-.9s2.2-.8 3.3-1.3c2.1-.9 4-2.1 5.8-3.4.9-.6 1.7-1.4 2.5-2.1.8-.7 1.6-1.5 2.4-2.2.7-.7 1.5-1.4 2.2-2.2.7-.7 1.3-1.4 1.9-1.9.5-.5 1-1.1 1.3-1.4.3-.4.5-.6.5-.6l-.6-.8zM47.3 29.8c-.9-1.5-1.7-3.2-2.4-4.7-.3-.8-.6-1.5-.9-2.3l-.6-2.1c-.1-.7-.3-1.3-.4-1.8-.1-.5-.1-1-.2-1.4-.1-.8-.1-1.2-.1-1.2s.1.4.2 1.2c.1.4.1.8.3 1.4.2.5.3 1.1.5 1.7s.5 1.3.8 2 .7 1.4 1 2.1c.8 1.4 1.7 3 2.7 4.4.4.6.9 1.2 1.3 1.7 1.6-3 3.6-5.7 5.9-8.1-.2-1-.5-1.9-.8-2.8-.4-1.1-.8-2.2-1.3-3.3-.9-2.1-2.1-4-3.4-5.8-.6-.9-1.4-1.7-2.1-2.5-.7-.8-1.5-1.6-2.2-2.4-.7-.7-1.4-1.5-2.2-2.2-.7-.7-1.4-1.3-1.9-1.9-.5-.5-1.1-1-1.4-1.3-.4-.3-.6-.5-.6-.5s-.2.2-.6.5c-.3.3-.9.8-1.4 1.4-.5.6-1.3 1.4-1.8 2.4-.6.9-1.1 2.1-1.6 3.3s-.8 2.6-1 4c-.3 1.5-.3 2.9-.2 4.5.1 1.5.3 3 .7 4.6.4 1.5.9 2.9 1.5 4.4.7 1.4 1.4 2.7 2.3 3.9.9 1.2 1.8 2.4 2.8 3.4 2 2 4.4 3.6 6.6 4.6.1 0 .2.1.3.1.5-1.7 1.1-3.3 1.9-4.9-.7-.8-1.2-1.6-1.7-2.4zM9.3 81.9s-.1 1.5 1.4 1.5h17.1v-14s-.2-2.3 2-2.3h7.1c2.7 0 2.5 2.3 2.5 2.3v14h16.8c1.9 0 1.8-1.9 1.8-1.9V55.6l-23.6-21-25.1 21v26.3z"/><path d="M0 53.6s2.1 3.9 6.8 0l27.8-23.5 26 23.3c5.4 3.9 7.4 0 7.4 0L34.6 23.2 0 53.6z"/></symbol><symbol id="home" viewBox="0 0 460.298 460.297"><path d="M230.15 120.94L65.985 256.273c0 .19-.048.472-.144.855-.094.38-.144.655-.144.85v137.042c0 4.948 1.81 9.236 5.426 12.847 3.616 3.612 7.898 5.43 12.847 5.43H193.6V303.664H266.7v109.64h109.63c4.947 0 9.235-1.814 12.846-5.435 3.617-3.608 5.432-7.9 5.432-12.848v-137.04c0-.76-.104-1.335-.288-1.708L230.148 120.94z"/><path d="M457.122 225.438L394.6 173.476V56.99c0-2.664-.856-4.854-2.574-6.568-1.704-1.712-3.894-2.568-6.563-2.568h-54.816c-2.666 0-4.855.856-6.57 2.568-1.71 1.714-2.566 3.905-2.566 6.567v55.672l-69.66-58.245c-6.085-4.95-13.32-7.423-21.695-7.423s-15.608 2.474-21.698 7.423L3.172 225.437c-1.903 1.52-2.946 3.567-3.14 6.137-.193 2.568.472 4.81 1.997 6.713l17.7 21.128c1.525 1.712 3.52 2.76 5.996 3.142 2.285.192 4.57-.476 6.855-1.998L230.15 95.816l197.57 164.74c1.525 1.33 3.52 1.992 5.995 1.992h.858c2.47-.377 4.463-1.43 5.996-3.14l17.702-21.124c1.522-1.906 2.19-4.145 1.99-6.716-.194-2.563-1.24-4.61-3.14-6.132z"/></symbol><symbol id="kommun" viewBox="0 0 80 51"><circle cx="10" cy="5" r="5"/><circle cx="40" cy="5" r="5"/><path d="M35 11c-.6 0-1.3.2-1.8.7L25 20l-8.2-8.2c-.5-.6-1.2-.8-1.8-.8H5c-2.8 0-5 2.2-5 5v10c0 2.8 2.2 5 5 5v20h10V17l8.2 8.2c.5.5 1.1.7 1.8.7s1.3-.3 1.8-.7L35 17v34h10V17l8.2 8.2c.5.5 1.1.7 1.8.7s1.3-.3 1.8-.7L65 17v34h10V31c2.8 0 5-2.2 5-5V16c0-2.8-2.2-5-5-5H65c-.6 0-1.3.2-1.8.7L55 20l-8.2-8.2c-.5-.6-1.2-.8-1.8-.8H35z"/><circle cx="40" cy="5" r="5"/><circle cx="70" cy="5" r="5"/></symbol><symbol id="message" viewBox="0 0 511.626 511.626"><path d="M49.106 178.73c6.472 4.566 25.98 18.13 58.528 40.684s57.482 39.92 74.803 52.1c1.903 1.334 5.946 4.236 12.13 8.71 6.187 4.475 11.327 8.092 15.417 10.85 4.093 2.76 9.04 5.853 14.85 9.278 5.805 3.422 11.278 5.996 16.417 7.7 5.14 1.718 9.9 2.57 14.276 2.57h.575c4.378 0 9.138-.853 14.278-2.57 5.137-1.704 10.615-4.28 16.416-7.7 5.804-3.43 10.752-6.52 14.845-9.277 4.092-2.76 9.228-6.376 15.416-10.852 6.184-4.477 10.232-7.375 12.135-8.71 17.51-12.18 62.052-43.11 133.616-92.79 13.894-9.703 25.502-21.41 34.827-35.116 9.332-13.7 13.993-28.07 13.993-43.105 0-12.564-4.523-23.32-13.565-32.264-9.04-8.947-19.748-13.418-32.116-13.418H45.68c-14.656 0-25.934 4.948-33.833 14.844C3.95 79.562 0 91.934 0 106.78c0 11.99 5.236 24.984 15.703 38.973 10.466 13.99 21.604 24.983 33.403 32.976z"/><path d="M483.072 209.275c-62.424 42.25-109.824 75.087-142.177 98.5-10.85 7.992-19.65 14.23-26.41 18.7-6.758 4.473-15.747 9.04-26.98 13.702-11.227 4.668-21.69 6.995-31.4 6.995h-.578c-9.707 0-20.177-2.327-31.405-6.995-11.228-4.66-20.223-9.23-26.98-13.702-6.755-4.47-15.56-10.708-26.407-18.7-25.697-18.84-72.995-51.68-141.896-98.5C17.986 202.047 8.374 193.762 0 184.437v226.685c0 12.57 4.47 23.32 13.418 32.265 8.945 8.95 19.7 13.422 32.264 13.422h420.266c12.56 0 23.315-4.474 32.26-13.423 8.95-8.95 13.42-19.694 13.42-32.265V184.437c-8.187 9.132-17.7 17.417-28.556 24.838z"/></symbol><symbol id="naringsliv" viewBox="0 0 90 68.7"><path d="M36.8 44.2l8.1 13.5 17.4-31.8 7.8 7L90 11.4l-4.3-3.9-16 17.3-9-8.2-16 29.4-6.3-10.3-35.3 26V0H.3v63.7L0 64l.3.5v4.1h3.1l.1.1.1-.1h84.3v-2.7H7.3z"/></symbol><symbol id="omsorg" viewBox="0 0 49.4 48"><path d="M49.3 12c.4 2.6.2 4.8-.4 6.7-2.8-3.2-6.9-5.2-11.4-5.2-8.4 0-15.3 6.9-15.3 15.3 0 5 2.4 9.5 6.2 12.3-2.1 2.7-3.7 5.3-3.8 7-.1-1.7-1.7-4.1-3.7-6.7-2-2.6-4.6-5.2-6.6-7.3-2.6-2.6-6.1-4.8-8.9-7.5C2 23.3-.6 19.3.3 12.8c.6-4.3 2.6-7.3 5.1-9.3C8.7.9 19.1-2.2 24.7 7.8l.1.6c1.7-4.6 4-6.8 8.1-8C38.1-1 44.4.9 47.5 6.6c.8 1.5 1.4 3.3 1.8 5.4z"/><path d="M37.9 18c6.3 0 11.5 5.1 11.5 11.5 0 6.3-5.1 11.4-11.5 11.4-6.3 0-11.5-5.1-11.5-11.4 0-6.4 5.2-11.5 11.5-11.5zm7 9.2h-4.2V23h-4.3v4.2h-4.2v4.3h4.2v4.2h4.3v-4.2h4.2v-4.3z"/></symbol><symbol id="search" viewBox="0 0 92.3 92.3"><path d="M91.1 85.4L68.4 62.6c12.2-15.1 11.3-37.3-2.7-51.4C58.4 4 48.7 0 38.4 0 28.2 0 18.5 4 11.2 11.3c-15 15-15 39.4 0 54.4C18.5 73 28.1 77 38.4 77c8.9 0 17.3-3 24.2-8.5l22.8 22.8c.8.8 1.8 1.2 2.9 1.2 1 0 2.1-.4 2.9-1.2 1.5-1.7 1.5-4.3-.1-5.9zM17 59.9C5.2 48.1 5.2 28.8 17 17c5.7-5.7 13.3-8.9 21.4-8.9 8.1 0 15.7 3.2 21.4 8.9 11.8 11.8 11.8 31.1 0 42.9-5.7 5.7-13.3 8.9-21.4 8.9-8.1 0-15.7-3.2-21.4-8.9z"/></symbol><symbol id="telephone" viewBox="0 0 401.998 401.998"><path d="M401.13 311.475c-1.138-3.426-8.372-8.473-21.698-15.13-3.61-2.097-8.754-4.948-15.41-8.565-6.662-3.617-12.71-6.95-18.13-9.996a605.612 605.612 0 0 1-15.276-8.846c-.76-.57-3.14-2.234-7.136-5-4-2.758-7.375-4.805-10.14-6.14-2.76-1.327-5.473-1.995-8.138-1.995-3.806 0-8.56 2.714-14.268 8.135a139.01 139.01 0 0 0-15.7 17.706c-4.757 6.38-9.802 12.275-15.126 17.7-5.332 5.427-9.713 8.138-13.135 8.138-1.718 0-3.86-.48-6.427-1.424-2.566-.95-4.518-1.766-5.858-2.423-1.328-.67-3.607-2-6.845-4.004-3.244-1.998-5.048-3.093-5.428-3.284-26.075-14.47-48.438-31.03-67.093-49.676-18.65-18.658-35.21-41.02-49.676-67.097-.19-.38-1.287-2.19-3.284-5.424-2-3.238-3.333-5.52-4-6.855-.665-1.33-1.474-3.283-2.424-5.852s-1.427-4.71-1.427-6.424c0-3.425 2.714-7.805 8.14-13.135 5.423-5.327 11.325-10.373 17.7-15.128a138.95 138.95 0 0 0 17.7-15.7c5.424-5.71 8.136-10.466 8.136-14.272 0-2.663-.666-5.378-1.997-8.137-1.333-2.765-3.38-6.14-6.14-10.138-2.762-3.997-4.427-6.374-5-7.14a627.13 627.13 0 0 1-8.847-15.27 1441.4 1441.4 0 0 1-9.995-18.13c-3.615-6.66-6.468-11.8-8.564-15.416C98.986 9.234 93.944 1.997 90.516.86 89.183.287 87.183 0 84.52 0c-5.14 0-11.85.95-20.128 2.856-8.282 1.903-14.8 3.9-19.558 5.996-9.517 3.995-19.604 15.605-30.264 34.826C4.863 61.566.01 79.27.01 96.78c0 5.135.333 10.13 1 14.99.665 4.852 1.855 10.325 3.57 16.417 1.712 6.09 3.093 10.614 4.137 13.56 1.045 2.948 2.996 8.23 5.852 15.845 2.85 7.614 4.566 12.275 5.137 13.988 6.66 18.654 14.56 35.307 23.695 49.964 15.03 24.362 35.54 49.54 61.52 75.52 25.982 25.98 51.154 46.49 75.518 61.527 14.655 9.135 31.314 17.033 49.965 23.7 1.714.567 6.375 2.278 13.986 5.14 7.615 2.854 12.898 4.805 15.846 5.852 2.95 1.048 7.474 2.43 13.56 4.145 6.097 1.715 11.565 2.905 16.418 3.576 4.856.657 9.853.996 14.99.996 17.507 0 35.213-4.857 53.104-14.563 19.22-10.656 30.826-20.745 34.823-30.27 2.103-4.753 4.094-11.272 5.997-19.554 1.91-8.278 2.857-14.985 2.857-20.126.006-2.673-.28-4.668-.855-6.012z"/></symbol><symbol id="trafik" viewBox="0 0 100 70.9"><path d="M100 28.4v42.5H79.6c.1-.8.1-1.7.1-2.5 0-16.6-13.5-30.1-30.1-30.1s-30 13.5-30 30.1c0 .8.1 1.7.1 2.5H0V28.4h100zM29.7 16.3c-3.4 0-6.1 2.7-6.1 6.1 0 3.3 2.7 6 6.1 6 3.3 0 6-2.7 6-6 0-3.4-2.7-6.1-6-6.1zm0 9.3c-1.8 0-3.3-1.5-3.3-3.3 0-1.8 1.5-3.3 3.3-3.3 1.8 0 3.3 1.4 3.3 3.3-.1 1.8-1.5 3.3-3.3 3.3zM70.4 16.3c-3.3 0-6 2.7-6 6.1 0 3.3 2.7 6 6 6s6.1-2.7 6.1-6c0-3.4-2.7-6.1-6.1-6.1zm0 9.3c-1.8 0-3.3-1.5-3.3-3.3 0-1.8 1.5-3.3 3.3-3.3 1.8 0 3.3 1.4 3.3 3.3 0 1.8-1.5 3.3-3.3 3.3z"/><path d="M82.2 17.8c0-5.9-3.7-6.6-3.7-6.6-5.4-.7-14.7-1.1-14.7-1.1C63 8.6 59.1 0 56.8 0H36.7C33.8 0 29 8.4 28 10.3c0 0-3.7.6-5.4 1-1 .2-3.6.3-3.6 7.7h-2.3v3.4h5.6c0-4.1 3.3-7.5 7.5-7.5 4.1 0 7.4 3.3 7.4 7.5H63c0-4.1 3.3-7.5 7.4-7.5 4.1 0 7.5 3.3 7.5 7.5h5.5v-4.5l-1.2-.1zM46.5 9.5H34.9c1.6-4.9 4.5-8.4 5.7-8.4h5.9v8.4zm2.2 0V1.1h7.5c1.5 0 4.9 7.1 5.9 8.9l-13.4-.5z"/></symbol><symbol id="uppleva" viewBox="0 0 22 17"><path d="M15.6 15.8c-1.4 0-2.7.9-4.1.9-1.4 0-2.8-.9-4.1-.9-1.6 0-2.7.6-3.4 1-.9.4-1.3-.4-.6-.8 0 0 1.3-1.1 4.1-1.1 1.5 0 2.6.8 4.1.8 1.6 0 2.6-.8 4.1-.8 2.6 0 4.1 1.1 4.1 1.1.7.5 0 1.2-.7.7-1-.4-1.4-.9-3.5-.9zM10 0s3.5 2.9 5.5 5.2 3.5 5.2 3.5 5.2l-7.5.6s.1-2.3 0-4.3C11.4 4.8 10 0 10 0zM7.8 9.2C6.7 11 5 12 5 12l5-.6L9.6 4s-.7 3.4-1.8 5.2zm-6 6.8s1.8-1.7 4.8-1.8 3.4.8 4.9.8 3.1-1 4.4-1.1c2.3-.1 4 1.2 4 1.2C22 15.1 22 11 22 11L0 13.2C.3 15.4 1.8 16 1.8 16z"/></symbol><symbol id="utbildning" viewBox="0 0 89.8 89.8"><path d="M59.6 48.7l-4.1-4.1 3.3-3.3.9-.9 29.7-29.7L78.7 0 48.9 29.7l-4.2 4.2-6.2-6.2L10.8 0 0 10.8 25.2 36l2.5 2.5 6.2 6.2L9.1 69.6.6 88.7l19.2-8.5 29.1-29.1.9-.9 5.1-5.1-.3.3.9.9-4.5 4.5.5.5 4.5-4.5 2.7 2.7 3.3 3.3-6.2 6.2.5.5 6.2-6.2 6.1 6-4.5 4.5.5.5 4.5-4.5 6 6-6.1 6.5.5.5 6.2-6.2 6.1 6.1-4.5 4.5.5.5 4.5-4.5 5.8 5.8-9.1 9.1-29.9-29.9-3.6-3.6-.9.9 3.6 3.6L79 89.8 89.8 79 59.6 48.7zm-31-11l-2.5-2.5L1.7 10.8l9.1-9.1 5.5 5.5-4.5 4.5.5.5 4.5-4.5 6 6-6.2 6.3.5.5 6.2-6.2 6 6-4.5 4.5.5.5 4.5-4.5 4.7 4.7 1.3 1.3-6.1 6.2.5.5 6.2-6.2 6 6L38 38l.5.5L43 34l.8.8-5.7 5.7-3.4 3.4-6.1-6.2zM10.2 70L78.7 1.7l4.2 4.2-68.1 68-4.2-4.2-.4.3-.5-.2.5.2zM7.7 84.3l-2.6-2.6 5-11.2 8.8 8.8-11.2 5zm11.6-5.2zm.4-.3l-4.3-4.3 68.1-68 4.2 4.2-68 68.1z"/></symbol></svg>