<?xml version="1.0" encoding="UTF-8"?><!DOCTYPE svg PUBLIC "-//W3C//DTD SVG 1.1//EN" "http://www.w3.org/Graphics/SVG/1.1/DTD/svg11.dtd"><svg xmlns="http://www.w3.org/2000/svg"><symbol id="alignleft" viewBox="0 0 20 18"><style>.st0{fill:none;stroke-width:2;stroke-miterlimit:10}</style><path class="st0" d="M0 1h20M0 5h15M0 9h20M0 13h15M0 17h20"/></symbol><symbol id="arrow-right-circle" viewBox="0 0 78.6 78.6"><path d="M39.3 0C17.6 0 0 17.6 0 39.3 0 61 17.6 78.6 39.3 78.6 61 78.6 78.6 61 78.6 39.3 78.6 17.6 61 0 39.3 0zm10.8 39.2l-.4.3-15.5 18.9-2.7-2.2 14-17.1-14-17.1 2.7-2.2 15.5 18.9.4.3v.2z"/></symbol><symbol id="arrow-right" viewBox="0 0 78.6 78.6"><path d="M50.1 39.2V39l-.4-.3-15.5-18.9-2.7 2.2 14 17.1-14 17.1 2.7 2.2 15.5-18.9z"/></symbol><symbol id="bygga" viewBox="0 0 87.3 83.4"><path d="M86.7 24.1c-.3-.3-.8-.9-1.4-1.4s-1.4-1.3-2.4-1.8c-.9-.6-2.1-1.1-3.3-1.6-1.2-.5-2.6-.8-4-1-1.5-.3-2.9-.3-4.5-.2-1.5.1-3 .3-4.6.7-1.5.4-2.9.9-4.4 1.5-1.4.7-2.7 1.4-3.9 2.3-1.2.9-2.4 1.8-3.4 2.8-2 2-3.6 4.4-4.6 6.6-.5 1.1-.9 2.2-1.2 3.3-.3 1-.5 2-.6 2.8-.1.4-.1.7-.1 1.1.4-.3.7-.6 1.2-1 2.1-1.7 5-3.8 8.1-5.6 1.6-.9 3.2-1.7 4.7-2.4.8-.3 1.5-.6 2.3-.9l2.1-.6c.7-.1 1.3-.3 1.8-.4.5-.1 1-.1 1.4-.2.8-.1 1.2-.1 1.2-.1s-.4.1-1.2.2c-.4.1-.8.1-1.4.3-.5.2-1.1.3-1.7.5s-1.3.5-2 .8-1.4.7-2.1 1c-1.5.8-3 1.7-4.4 2.7-2.9 2-5.6 4.3-7.5 6.1L49.4 41c.4.1 1 .2 1.6.2.8.1 1.8.2 2.8.3s2.1.1 3.2.1 2.3-.1 3.5-.2c1.2-.1 2.4-.3 3.5-.5 1.2-.3 2.3-.5 3.4-.9s2.2-.8 3.3-1.3c2.1-.9 4-2.1 5.8-3.4.9-.6 1.7-1.4 2.5-2.1.8-.7 1.6-1.5 2.4-2.2.7-.7 1.5-1.4 2.2-2.2.7-.7 1.3-1.4 1.9-1.9.5-.5 1-1.1 1.3-1.4.3-.4.5-.6.5-.6l-.6-.8zM47.3 29.8c-.9-1.5-1.7-3.2-2.4-4.7-.3-.8-.6-1.5-.9-2.3l-.6-2.1c-.1-.7-.3-1.3-.4-1.8-.1-.5-.1-1-.2-1.4-.1-.8-.1-1.2-.1-1.2s.1.4.2 1.2c.1.4.1.8.3 1.4.2.5.3 1.1.5 1.7s.5 1.3.8 2 .7 1.4 1 2.1c.8 1.4 1.7 3 2.7 4.4.4.6.9 1.2 1.3 1.7 1.6-3 3.6-5.7 5.9-8.1-.2-1-.5-1.9-.8-2.8-.4-1.1-.8-2.2-1.3-3.3-.9-2.1-2.1-4-3.4-5.8-.6-.9-1.4-1.7-2.1-2.5-.7-.8-1.5-1.6-2.2-2.4-.7-.7-1.4-1.5-2.2-2.2-.7-.7-1.4-1.3-1.9-1.9-.5-.5-1.1-1-1.4-1.3-.4-.3-.6-.5-.6-.5s-.2.2-.6.5c-.3.3-.9.8-1.4 1.4-.5.6-1.3 1.4-1.8 2.4-.6.9-1.1 2.1-1.6 3.3s-.8 2.6-1 4c-.3 1.5-.3 2.9-.2 4.5.1 1.5.3 3 .7 4.6.4 1.5.9 2.9 1.5 4.4.7 1.4 1.4 2.7 2.3 3.9.9 1.2 1.8 2.4 2.8 3.4 2 2 4.4 3.6 6.6 4.6.1 0 .2.1.3.1.5-1.7 1.1-3.3 1.9-4.9-.7-.8-1.2-1.6-1.7-2.4zM9.3 81.9s-.1 1.5 1.4 1.5h17.1v-14s-.2-2.3 2-2.3h7.1c2.7 0 2.5 2.3 2.5 2.3v14h16.8c1.9 0 1.8-1.9 1.8-1.9V55.6l-23.6-21-25.1 21v26.3z"/><path d="M0 53.6s2.1 3.9 6.8 0l27.8-23.5 26 23.3c5.4 3.9 7.4 0 7.4 0L34.6 23.2 0 53.6z"/></symbol><symbol id="dragon" viewBox="0 0 118.1 216.9"><path d="M23.8 19.7s-4.9 8.6 3.8 11.1c11 2.7 22.7 4.5 33.7 8.9 3.1 1.2-.3 4.1-2.3 4-19-5.2-37.2-11.8-59-10.9 4.9 5.9 12.1 13.9 13.7 21.9 7.6-6.1 19.4-9.5 28.7-4.5l-11 3.8C14.1 60.5 2.3 78.9.5 96.5c-1.6 19.6 8.9 36.7 26.1 45.7 20.7 10.9 53.9 6.3 63.3 28.3 2.3 5.3 2.1 15.7-2.3 22-7.9 10-19 13-32.2 11.5 0 0-15.5-2.1-24.7-9.1-13.1-10-17-23.4-18.7-38.3l-8-.1c1.9 18.9.1 37.9-2.6 55.8l6.7.7s1.8-4.7 3.7-7.6c1.5-1.5 4.1-2 6.1-.6 23.2 16 60.9 15.9 82.7 1.2 15-11.1 20.4-27.8 16-45.2-9.9-34.9-50-31.1-76.1-43.1-8.7-3.4-17.5-11.9-17.5-22.1-.2-10.6 4.1-19.1 12.8-25.1 3.5-2.2 7.4-2.5 7.4-2.5-7.1 7.3-11.5 15.7-10.2 26.4.9 8.6 8.4 17 16.7 19.4 8.1 2.2 15.4-1 21.4-5.7l-.7-3.7c-3.5.9-8.1 1-11.6.1-7.3-2.6-9.9-9.7-9.3-17 .6-3.1 3.1-5.3 6.7-4.4 17.9 7.4 14.6 31.2 31.5 39.5 5.6 2.1 10.9.2 14.4-2.3 8.8-6.2 12-14.4 14.4-24.4-4.8 5.4-9.1 11.1-16.1 12.4-3.5.8-5.3.1-7.4-3-6.9-11-9.1-29.4-25.3-31-3.1.1-4-.3-9.8.7 4.1-3.4 9.1-6.7 14.6-6.8 8.1-.3 16.4 5.3 19.6 10.9 1.6 3 1.1 8.1-1.1 11l3.7 2.8c6.1-7.9 19.2-18 19.1-24.6-1.1-13-20.6-20.8-32.2-25.4 0 0 2-5.2 1-8.9-2.3-5.2-7-6-11.7-7.3-8.4-2.4-22.1-3.5-28.3-9-6.1-5.5-3.2-11.4-1.7-17.7-16.3 17.4-17.1 19.7-17.1 19.7zm51 27.2c1.9 1 3.9 3 4.9 4.8L62 48.9c3.5-2.5 8.7-4.5 12.8-2z"/></symbol><symbol id="error" viewBox="0 0 24 24"><path d="M0 0h24v24H0z" fill="none"/><path d="M12 2C6.48 2 2 6.48 2 12s4.48 10 10 10 10-4.48 10-10S17.52 2 12 2zm1 15h-2v-2h2v2zm0-4h-2V7h2v6z"/></symbol><symbol id="external" viewBox="0 0 24 24"><path d="M0 0h24v24H0z" fill="none"/><path d="M19 19H5V5h7V3H5a2 2 0 0 0-2 2v14a2 2 0 0 0 2 2h14c1.1 0 2-.9 2-2v-7h-2v7zM14 3v2h3.59l-9.83 9.83 1.41 1.41L19 6.41V10h2V3h-7z"/></symbol><symbol id="facebook" viewBox="0 0 470.513 470.513"><path d="M271.521 154.17v-40.541c0-6.086.28-10.8.849-14.13.567-3.335 1.857-6.615 3.859-9.853 1.999-3.236 5.236-5.47 9.706-6.708 4.476-1.24 10.424-1.858 17.85-1.858h40.539V0h-64.809c-37.5 0-64.433 8.897-80.803 26.691-16.368 17.798-24.551 44.014-24.551 78.658v48.82h-48.542v81.086h48.539v235.256h97.362V235.256h64.805l8.566-81.086h-73.37z"/></symbol><symbol id="home" viewBox="0 0 24 24"><path d="M10 20v-6h4v6h5v-8h3L12 3 2 12h3v8z"/><path d="M0 0h24v24H0z" fill="none"/></symbol><symbol id="instagram" viewBox="0 0 438.536 438.536"><path d="M421.981 16.562C410.941 5.519 397.711 0 382.298 0H56.248C40.83 0 27.604 5.521 16.561 16.562 5.52 27.6.001 40.828.001 56.243V382.29c0 15.413 5.518 28.644 16.56 39.683 11.043 11.04 24.272 16.563 39.687 16.563h326.046c15.41 0 28.644-5.523 39.684-16.563 11.043-11.039 16.557-24.27 16.557-39.683V56.243c-.001-15.418-5.514-28.639-16.554-39.681zM157.462 158.025c17.224-16.652 37.924-24.982 62.097-24.982 24.36 0 45.153 8.33 62.381 24.982 17.228 16.655 25.837 36.785 25.837 60.386 0 23.598-8.609 43.729-25.837 60.379-17.228 16.659-38.014 24.988-62.381 24.988-24.172 0-44.87-8.336-62.097-24.988-17.228-16.652-25.841-36.781-25.841-60.379 0-23.601 8.613-43.73 25.841-60.386zm231.403 212.564c0 4.945-1.718 9.083-5.141 12.416-3.433 3.33-7.519 4.996-12.282 4.996h-305.2c-4.948 0-9.091-1.666-12.419-4.996-3.333-3.326-4.998-7.471-4.998-12.416V185.575H89.08c-3.805 11.993-5.708 24.462-5.708 37.402 0 36.553 13.322 67.715 39.969 93.511 26.65 25.786 58.721 38.685 96.217 38.685 24.744 0 47.583-5.903 68.527-17.703 20.937-11.807 37.486-27.839 49.676-48.112 12.183-20.272 18.274-42.4 18.274-66.38 0-12.94-1.91-25.406-5.715-37.402h38.547V370.59h-.002zm0-254.963c0 5.52-1.903 10.184-5.716 13.99-3.805 3.809-8.466 5.711-13.989 5.711h-49.676c-5.517 0-10.185-1.903-13.99-5.711-3.806-3.806-5.708-8.47-5.708-13.99V68.522c0-5.33 1.902-9.945 5.708-13.848 3.806-3.901 8.474-5.854 13.99-5.854h49.676c5.523 0 10.185 1.952 13.989 5.854 3.812 3.903 5.716 8.518 5.716 13.848v47.104z"/></symbol><symbol id="kommun" viewBox="0 0 80 51"><circle cx="10" cy="5" r="5"/><circle cx="40" cy="5" r="5"/><path d="M35 11c-.6 0-1.3.2-1.8.7L25 20l-8.2-8.2c-.5-.6-1.2-.8-1.8-.8H5c-2.8 0-5 2.2-5 5v10c0 2.8 2.2 5 5 5v20h10V17l8.2 8.2c.5.5 1.1.7 1.8.7s1.3-.3 1.8-.7L35 17v34h10V17l8.2 8.2c.5.5 1.1.7 1.8.7s1.3-.3 1.8-.7L65 17v34h10V31c2.8 0 5-2.2 5-5V16c0-2.8-2.2-5-5-5H65c-.6 0-1.3.2-1.8.7L55 20l-8.2-8.2c-.5-.6-1.2-.8-1.8-.8H35z"/><circle cx="40" cy="5" r="5"/><circle cx="70" cy="5" r="5"/></symbol><symbol id="language" viewBox="0 0 24 24"><path d="M0 0h24v24H0z" fill="none"/><path d="M11.99 2C6.47 2 2 6.48 2 12s4.47 10 9.99 10C17.52 22 22 17.52 22 12S17.52 2 11.99 2zm6.93 6h-2.95a15.65 15.65 0 0 0-1.38-3.56A8.03 8.03 0 0 1 18.92 8zM12 4.04c.83 1.2 1.48 2.53 1.91 3.96h-3.82c.43-1.43 1.08-2.76 1.91-3.96zM4.26 14C4.1 13.36 4 12.69 4 12s.1-1.36.26-2h3.38c-.08.66-.14 1.32-.14 2 0 .68.06 1.34.14 2H4.26zm.82 2h2.95c.32 1.25.78 2.45 1.38 3.56A7.987 7.987 0 0 1 5.08 16zm2.95-8H5.08a7.987 7.987 0 0 1 4.33-3.56A15.65 15.65 0 0 0 8.03 8zM12 19.96c-.83-1.2-1.48-2.53-1.91-3.96h3.82c-.43 1.43-1.08 2.76-1.91 3.96zM14.34 14H9.66c-.09-.66-.16-1.32-.16-2 0-.68.07-1.35.16-2h4.68c.09.65.16 1.32.16 2 0 .68-.07 1.34-.16 2zm.25 5.56c.6-1.11 1.06-2.31 1.38-3.56h2.95a8.03 8.03 0 0 1-4.33 3.56zM16.36 14c.08-.66.14-1.32.14-2 0-.68-.06-1.34-.14-2h3.38c.16.64.26 1.31.26 2s-.1 1.36-.26 2h-3.38z"/></symbol><symbol id="linkedin" viewBox="0 0 438.536 438.535"><path d="M5.424 145.895H99.64v282.932H5.424zM408.842 171.739c-19.791-21.604-45.967-32.408-78.512-32.408-11.991 0-22.891 1.475-32.695 4.427-9.801 2.95-18.079 7.089-24.838 12.419-6.755 5.33-12.135 10.278-16.129 14.844-3.798 4.337-7.512 9.389-11.136 15.104v-40.232h-93.935l.288 13.706c.193 9.139.288 37.307.288 84.508 0 47.205-.19 108.777-.572 184.722h93.931V270.942c0-9.705 1.041-17.412 3.139-23.127 4-9.712 10.037-17.843 18.131-24.407 8.093-6.572 18.13-9.855 30.125-9.855 16.364 0 28.407 5.662 36.117 16.987 7.707 11.324 11.561 26.98 11.561 46.966V428.82h93.931V266.664c-.007-41.688-9.897-73.328-29.694-94.925zM53.103 9.708c-15.796 0-28.595 4.619-38.4 13.848C4.899 32.787 0 44.441 0 58.529 0 72.42 4.758 84.034 14.275 93.358c9.514 9.325 22.078 13.99 37.685 13.99h.571c15.99 0 28.887-4.661 38.688-13.99 9.801-9.324 14.606-20.934 14.417-34.829-.19-14.087-5.047-25.742-14.561-34.973C81.562 14.323 68.9 9.708 53.103 9.708z"/></symbol><symbol id="listen" viewBox="0 0 76.8 83"><path d="M47.7 59.7v-4.6c6.4-2.7 11.4-8.2 13.5-15v1.3c0 3.4 2.8 6.2 6.2 6.2h2.1c3.4 0 6.2-2.8 6.2-6.2V27c0-3.4-2.8-6.2-6.2-6.2h-.4C64.2 8.6 52.3 0 38.4 0S12.6 8.6 7.7 20.8h-.4c-3.4 0-6.2 2.8-6.2 6.2v14.5c0 3.4 2.8 6.2 6.2 6.2h2.1c3.4 0 6.2-2.8 6.2-6.2v-1.3c2.1 6.8 7.1 12.3 13.5 15v4.6C14.6 62.5 3.3 71.6 0 83h4.3C7.5 73.8 17 66.5 29.1 63.9c1.4-.3 2.7-.5 4.2-.7v-11c-1.5-.4-2.8-.9-4.2-1.6-6.2-3.3-10.4-9.9-10.4-17.4 0-10.9 8.8-19.7 19.7-19.7s19.7 8.8 19.7 19.7c0 7.5-4.2 14-10.4 17.4-1.3.7-2.7 1.2-4.2 1.6v11.1c1.4.2 2.8.4 4.2.7 12 2.5 21.5 9.8 24.7 19.1h4.3c-3.2-11.5-14.5-20.6-29-23.4zM38.4 9.3c-10.8 0-20 7.2-22.9 17.1-.2-2.3-1.6-4.2-3.6-5.1C16.5 11.2 26.6 4.1 38.4 4.1s21.9 7.1 26.5 17.2c-2 .9-3.4 2.8-3.6 5.1-2.9-9.8-12.1-17.1-22.9-17.1z"/></symbol><symbol id="logo" viewBox="0 0 277.4 110.3"><path d="M12.1 10s-2.5 4.4 1.9 5.6c5.6 1.4 11.6 2.3 17.2 4.5 1.6.6-.1 2.1-1.2 2-9.7-2.7-18.9-6-30-5.5 2.5 3 6.2 7.1 7 11.2 3.9-3.1 9.9-4.8 14.6-2.3l-5.6 2C7.2 30.8 1.2 40.1.3 49.1c-.8 10 4.5 18.7 13.3 23.2 10.5 5.6 27.4 3.2 32.2 14.4 1.1 2.7 1.1 8-1.2 11.2-4 5.1-9.7 6.6-16.4 5.8 0 0-7.9-1.1-12.5-4.6C8.9 94 7 87.2 6.1 79.6h-4c1 9.6 0 19.3-1.3 28.4l3.4.4s.9-2.4 1.9-3.8c.8-.8 2.1-1 3.1-.3 11.8 8.1 31 8.1 42.1.6 7.6-5.6 10.4-14.1 8.1-23C54.3 64 33.9 66 20.6 59.8c-4.4-1.7-8.9-6-8.9-11.2-.1-5.4 2.1-9.7 6.5-12.8 1.8-1.1 3.7-1.3 3.7-1.3-3.6 3.7-5.8 8-5.2 13.4.5 4.4 4.3 8.6 8.5 9.9 4.1 1.1 7.8-.5 10.9-2.9l-.4-1.9c-1.8.5-4.1.5-5.9 0-3.7-1.3-5.1-5-4.7-8.7.3-1.6 1.6-2.7 3.4-2.2 9.1 3.8 7.4 15.9 16 20.1 2.9 1 5.5.1 7.3-1.2 4.5-3.2 6.1-7.3 7.3-12.4-2.4 2.7-4.6 5.7-8.2 6.3-1.8.4-2.7 0-3.7-1.5-3.5-5.6-4.6-14.9-12.9-15.8-1.6 0-2-.1-5 .3 2.1-1.7 4.6-3.4 7.4-3.5 4.1-.1 8.4 2.7 10 5.5.8 1.6.6 4.1-.6 5.6l1.9 1.4c3.1-4 9.8-9.1 9.7-12.5-.5-6.6-10.5-10.6-16.4-12.9 0 0 1-2.6.5-4.5-1.1-2.6-3.6-3-5.9-3.7-4.3-1.2-11.2-1.8-14.4-4.6-3.2-2.8-1.7-5.8-.9-9C12.5 8.9 12.1 10 12.1 10zM38 23.9c1 .5 2 1.5 2.5 2.5l-9-1.5c1.8-1.3 4.4-2.3 6.5-1zM89.2 42.9c-.1-.1-.4-.3-.9-.6s-1.1-.6-1.8-.9c-.7-.3-1.5-.6-2.3-.8-.8-.2-1.7-.4-2.5-.4-1.1 0-2 .2-2.6.6-.6.4-.9 1-.9 1.7 0 .5.1.9.4 1.2.3.3.6.6 1.1.9.5.2 1.1.5 1.8.7.7.2 1.6.5 2.5.7 1.4.4 2.6.8 3.7 1.2 1.1.4 2 1 2.8 1.6.8.6 1.4 1.4 1.8 2.4.4.9.6 2 .6 3.3 0 1.6-.3 2.9-.9 4-.6 1.1-1.4 2-2.4 2.7-1 .7-2.1 1.2-3.4 1.5-1.3.3-2.6.5-3.9.5-1 0-2.1-.1-3.2-.2-1.1-.2-2.1-.4-3.2-.7-1-.3-2-.7-3-1.1-1-.4-1.9-.9-2.7-1.5l2.9-5.7c.1.1.5.4 1.1.8.6.4 1.3.7 2.1 1.1.9.4 1.8.7 2.9 1 1.1.3 2.1.4 3.2.4 2.3 0 3.5-.7 3.5-2.1 0-.5-.2-1-.5-1.3-.3-.3-.8-.7-1.4-.9-.6-.3-1.3-.5-2.1-.8-.8-.2-1.7-.5-2.7-.8-1.3-.4-2.4-.8-3.4-1.3s-1.7-1-2.4-1.6c-.6-.6-1.1-1.3-1.4-2.1-.3-.8-.5-1.7-.5-2.8 0-1.5.3-2.8.8-3.9.6-1.1 1.3-2.1 2.3-2.9 1-.8 2.1-1.4 3.3-1.8 1.3-.4 2.6-.6 4-.6 1 0 2 .1 2.9.3 1 .2 1.9.4 2.7.7.9.3 1.7.6 2.4 1 .8.4 1.5.7 2.1 1.1l-2.8 5.4zM101.9 63.2c-2.1 0-3.7-.7-4.8-2-1.1-1.3-1.7-3.3-1.7-5.9V42h6.4v12c0 1.3.2 2.2.8 2.9.5.7 1.2 1 2.1 1 .8 0 1.7-.2 2.5-.7.8-.4 1.5-1.2 2.1-2.3V42h6.3v13.7c0 .6.1 1.1.4 1.3.2.2.7.4 1.3.5v5.4c-.7.1-1.2.2-1.7.3-.5 0-.9.1-1.3.1-2.2 0-3.5-.9-3.8-2.7l-.1-1.3c-1 1.4-2.1 2.4-3.6 3-1.6.6-3.1.9-4.9.9zM140.4 62.8H134V51.1c0-1.4-.3-2.4-.8-3-.5-.6-1.2-.9-2-.9-.5 0-.9.1-1.4.3-.5.2-.9.4-1.3.8-.4.3-.8.7-1.1 1.2-.3.5-.6.9-.8 1.5v12h-6.4V42h5.7v3.5c.8-1.2 1.9-2.2 3.3-2.9 1.4-.7 3-1 4.8-1 1.4 0 2.4.2 3.3.7.8.5 1.5 1.1 1.9 1.9.5.8.8 1.6.9 2.6.1.9.2 1.8.2 2.7v13.3zM152.8 63.2c-1.4 0-2.7-.3-4-.8-1.2-.5-2.2-1.3-3.1-2.3-.9-1-1.6-2.1-2-3.4-.5-1.3-.7-2.7-.7-4.3 0-1.5.2-2.9.7-4.3.5-1.3 1.1-2.5 1.9-3.4.8-1 1.8-1.7 2.9-2.3 1.1-.6 2.4-.8 3.7-.8 1.4 0 2.7.3 3.9 1 1.2.7 2.1 1.6 2.7 2.8V33.8h6.4v21.8c0 .6.1 1.1.4 1.3.2.2.7.4 1.3.5v5.4c-.7.1-1.2.2-1.7.3-.5 0-.9.1-1.3.1-2.2-.1-3.5-.9-3.8-2.7l-.1-1.1c-.8 1.3-1.8 2.3-3 2.9-1.4.6-2.7.9-4.2.9zm1.8-5.4c.9 0 1.7-.3 2.5-.8s1.4-1.2 1.9-2.1v-4.4c-.4-1.1-1-1.9-1.9-2.6-.9-.7-1.8-1-2.8-1-.7 0-1.3.1-1.9.5-.6.3-1.1.7-1.5 1.2-.4.5-.7 1.1-1 1.7-.2.7-.3 1.4-.3 2.1 0 1.6.5 2.8 1.4 3.9.9 1 2.1 1.5 3.6 1.5zM178.7 63.2c-.9 0-1.8-.1-2.7-.2-.9-.1-1.9-.3-2.8-.5-.9-.2-1.8-.5-2.7-.8-.9-.3-1.6-.7-2.2-1.1l2.5-4.3c1.4.8 2.7 1.4 4 1.8 1.3.4 2.5.6 3.7.6.9 0 1.6-.1 2.1-.4.5-.3.7-.7.7-1.3 0-.6-.3-1-1-1.3-.7-.3-1.8-.7-3.4-1.1-1.4-.4-2.6-.7-3.6-1.1-1-.4-1.8-.8-2.4-1.2-.6-.5-1-1-1.3-1.6-.3-.6-.4-1.3-.4-2.1 0-1.1.2-2 .7-2.9.4-.9 1-1.6 1.8-2.2.8-.6 1.7-1.1 2.7-1.4 1.1-.3 2.2-.5 3.4-.5 1.5 0 2.9.2 4.5.7 1.5.4 3 1 4.5 1.8l-2.5 4c-1.3-.7-2.5-1.2-3.5-1.6-1-.3-2-.5-3-.5-.8 0-1.4.1-2 .4-.5.3-.8.7-.8 1.3 0 .3.1.5.2.7.1.2.4.4.7.6.3.2.7.3 1.2.5.5.1 1.1.3 1.9.5 1.5.4 2.8.8 3.9 1.2 1.1.4 1.9.8 2.6 1.3.7.5 1.1 1 1.4 1.7.3.6.4 1.4.4 2.3 0 1-.2 2-.6 2.8-.4.8-1 1.5-1.8 2.1-.8.6-1.7 1-2.8 1.3-.8.3-2.1.5-3.4.5zM195.1 62.8L187.7 42h6.5l4.6 15.8 4.6-15.8h5.9L202 62.8h-6.9zM216.6 63.2c-1 0-2-.2-2.9-.5-.9-.3-1.7-.8-2.3-1.4-.6-.6-1.1-1.3-1.5-2.1-.4-.8-.6-1.7-.6-2.6 0-1 .2-2 .7-2.8.4-.8 1.1-1.6 1.8-2.2.8-.6 1.7-1.1 2.8-1.4 1.1-.3 2.3-.5 3.6-.5.9 0 1.7.1 2.5.2s1.5.4 2.1.7v-1c0-2.4-1.4-3.6-4.2-3.6-1.1 0-2.2.2-3.3.6-1 .4-2.1 1-3.3 1.7l-1.9-4c1.4-.9 2.8-1.6 4.3-2 1.5-.5 3.1-.7 4.7-.7 3.2 0 5.6.7 7.3 2.2 1.7 1.5 2.6 3.7 2.6 6.5v5.4c0 .6.1 1.1.4 1.3.2.2.7.4 1.3.5v5.4c-.6.1-1.2.2-1.7.3-.5 0-1 .1-1.4.1-1.2 0-2-.3-2.7-.7-.6-.4-1-1.1-1.2-1.9l-.1-1c-.9 1.2-2 2.1-3.3 2.7-.9.5-2.2.8-3.7.8zm1.9-4.6c.7 0 1.4-.1 2-.4.6-.2 1.2-.6 1.6-1 .6-.5.9-1 .9-1.5v-2c-.5-.2-1.2-.4-1.8-.5-.6-.1-1.3-.2-1.8-.2-1.2 0-2.1.3-2.9.8-.8.5-1.1 1.2-1.1 2.1 0 .8.3 1.4.9 1.9.6.6 1.3.8 2.2.8zM233.7 33.8h6.4V55c0 1.6.7 2.4 2.1 2.4.3 0 .6-.1 1-.2s.7-.2 1-.4l.8 5.2c-.8.4-1.7.7-2.7.9-1 .2-2 .3-2.9.3-1.8 0-3.2-.5-4.2-1.4-1-1-1.5-2.3-1.5-4.1V33.8zM246.7 33.8h6.4V55c0 1.6.7 2.4 2.1 2.4.3 0 .6-.1 1-.2s.7-.2 1.1-.4l.8 5.1c-.8.4-1.7.7-2.7.9-1 .2-2 .3-2.9.3-1.8 0-3.2-.5-4.2-1.4-1-1-1.5-2.3-1.5-4.1V33.8zM268.6 63.2c-.9 0-1.8-.1-2.7-.2-.9-.1-1.9-.3-2.8-.5-.9-.2-1.8-.5-2.7-.8-.8-.3-1.6-.7-2.2-1.1l2.5-4.3c1.4.8 2.7 1.4 4 1.8 1.3.4 2.5.6 3.7.6.9 0 1.6-.1 2.1-.4.5-.3.7-.7.7-1.3 0-.6-.3-1-1-1.3-.7-.3-1.8-.7-3.4-1.1-1.4-.4-2.6-.7-3.6-1.1-1-.4-1.8-.8-2.4-1.2-.6-.5-1-1-1.3-1.6-.3-.6-.4-1.3-.4-2.1 0-1.1.2-2 .7-2.9.4-.9 1-1.6 1.8-2.2.8-.6 1.7-1.1 2.7-1.4 1-.3 2.2-.5 3.4-.5 1.5 0 2.9.2 4.5.7 1.5.4 3 1 4.5 1.8l-2.5 4c-1.3-.7-2.5-1.2-3.5-1.6-1-.3-2-.5-3-.5-.8 0-1.4.1-2 .4-.5.3-.8.7-.8 1.3 0 .3.1.5.2.7.1.2.3.4.7.6.3.2.7.3 1.2.5.5.1 1.1.3 1.9.5 1.5.4 2.8.8 3.9 1.2 1.1.4 1.9.8 2.6 1.3.7.5 1.1 1 1.4 1.7.3.6.4 1.4.4 2.3 0 1-.2 2-.6 2.8-.4.8-1 1.5-1.8 2.1-.8.6-1.7 1-2.8 1.3-.9.3-2.1.5-3.4.5zM85.8 98.5l-5.4-8.4-2.2 2.3v6.1h-6.3v-29h6.3v16.8l7.1-8.7h6.8l-7.5 9 8.1 11.9h-6.9z"/><path d="M102.8 98.9c-1.8 0-3.4-.3-4.8-.9-1.4-.6-2.6-1.4-3.5-2.4-1-1-1.7-2.1-2.2-3.5-.5-1.3-.7-2.7-.7-4.1 0-1.4.2-2.8.7-4.1.5-1.3 1.2-2.5 2.2-3.5 1-1 2.1-1.8 3.5-2.4 1.4-.6 3-.9 4.8-.9 1.8 0 3.3.3 4.7.9 1.4.6 2.5 1.4 3.5 2.4s1.7 2.1 2.2 3.5c.5 1.3.8 2.7.8 4.1 0 1.4-.2 2.8-.7 4.1-.5 1.3-1.2 2.5-2.2 3.5-1 1-2.1 1.8-3.5 2.4-1.4.6-3 .9-4.8.9zm-4.6-10.8c0 1.6.4 3 1.3 3.9.9 1 2 1.5 3.3 1.5.7 0 1.3-.1 1.8-.4.6-.3 1-.6 1.5-1.1.4-.5.7-1.1 1-1.7.2-.7.4-1.4.4-2.2 0-1.6-.4-3-1.3-4s-2-1.5-3.3-1.5c-.7 0-1.3.1-1.9.4-.6.3-1.1.6-1.5 1.1-.4.5-.7 1-1 1.7-.2.8-.3 1.5-.3 2.3zM149.6 98.5h-6.4V86.8c0-1.4-.2-2.4-.7-3-.5-.6-1.1-.9-2-.9-.8 0-1.7.3-2.5 1s-1.4 1.6-1.8 2.7v11.9h-6.4V86.8c0-1.4-.2-2.4-.7-3-.5-.6-1.1-.9-2-.9-.9 0-1.7.3-2.5 1s-1.4 1.6-1.8 2.7v11.9h-6.4V77.7h5.7v3.5c.8-1.3 1.8-2.2 3.1-2.9 1.3-.7 2.9-1 4.6-1 .8 0 1.6.1 2.3.3.7.2 1.2.5 1.7.9s.9.8 1.2 1.3c.3.5.5 1 .7 1.6.8-1.3 1.8-2.3 3.1-3 1.3-.7 2.8-1.1 4.4-1.1 1.3 0 2.4.2 3.2.7.8.5 1.4 1.1 1.9 1.9.5.8.8 1.6.9 2.6.1.9.2 1.8.2 2.7v13.3zM186.3 98.5h-6.4V86.8c0-1.4-.2-2.4-.7-3-.5-.6-1.1-.9-2-.9-.9 0-1.7.3-2.5 1s-1.4 1.6-1.8 2.7v11.9h-6.4V86.8c0-1.4-.2-2.4-.7-3-.5-.6-1.1-.9-2-.9-.8 0-1.7.3-2.5 1s-1.4 1.6-1.8 2.7v11.9h-6.3V77.7h5.7v3.5c.8-1.3 1.8-2.2 3.1-2.9 1.3-.7 2.9-1 4.6-1 .8 0 1.6.1 2.3.3.7.2 1.2.5 1.7.9s.8.8 1.2 1.3c.3.5.5 1 .7 1.6.8-1.3 1.8-2.3 3.1-3 1.3-.7 2.8-1.1 4.4-1.1 1.3 0 2.4.2 3.2.7.8.5 1.4 1.1 1.9 1.9.5.8.8 1.6.9 2.6.1.9.2 1.8.2 2.7v13.3zM196.4 98.9c-2.1 0-3.7-.7-4.8-2-1.1-1.3-1.7-3.3-1.7-5.9V77.7h6.3v11.9c0 1.3.3 2.2.8 2.9.5.7 1.2 1 2.1 1 .8 0 1.7-.2 2.5-.7.8-.4 1.5-1.2 2.1-2.3V77.7h6.4v13.7c0 .6.1 1.1.4 1.3.2.3.7.4 1.3.5v5.4c-.7.1-1.2.2-1.7.3-.5 0-.9.1-1.3.1-2.2 0-3.5-.9-3.9-2.7l-.1-1.3c-1 1.4-2.1 2.4-3.6 3-1.5.6-3.1.9-4.8.9zM234.9 98.5h-6.4V86.8c0-1.4-.3-2.4-.8-3-.5-.6-1.2-.9-2-.9-.5 0-.9.1-1.4.3-.5.2-.9.4-1.3.8-.4.3-.8.7-1.1 1.2-.3.5-.6.9-.8 1.5v11.9h-6.4V77.7h5.7v3.5c.8-1.2 1.9-2.2 3.3-2.9 1.4-.7 3-1 4.8-1 1.4 0 2.4.2 3.3.7.8.5 1.5 1.1 1.9 1.9.5.8.7 1.6.9 2.6.1.9.2 1.8.2 2.7v13.3z"/></symbol><symbol id="menu" viewBox="0 0 24 24"><path d="M0 0h24v24H0z" fill="none"/><path d="M3 18h18v-2H3v2zm0-5h18v-2H3v2zm0-7v2h18V6H3z"/></symbol><symbol id="message" viewBox="0 0 24 24"><path d="M20 4H4c-1.1 0-1.99.9-1.99 2L2 18c0 1.1.9 2 2 2h16c1.1 0 2-.9 2-2V6c0-1.1-.9-2-2-2zm0 4l-8 5-8-5V6l8 5 8-5v2z"/><path d="M0 0h24v24H0z" fill="none"/></symbol><symbol id="naringsliv" viewBox="0 0 90 68.7"><path d="M36.8 44.2l8.1 13.5 17.4-31.8 7.8 7L90 11.4l-4.3-3.9-16 17.3-9-8.2-16 29.4-6.3-10.3-35.3 26V0H.3v63.7L0 64l.3.5v4.1h3.1l.1.1.1-.1h84.3v-2.7H7.3z"/></symbol><symbol id="omsorg" viewBox="0 0 49.4 48"><path d="M49.3 12c.4 2.6.2 4.8-.4 6.7-2.8-3.2-6.9-5.2-11.4-5.2-8.4 0-15.3 6.9-15.3 15.3 0 5 2.4 9.5 6.2 12.3-2.1 2.7-3.7 5.3-3.8 7-.1-1.7-1.7-4.1-3.7-6.7-2-2.6-4.6-5.2-6.6-7.3-2.6-2.6-6.1-4.8-8.9-7.5C2 23.3-.6 19.3.3 12.8c.6-4.3 2.6-7.3 5.1-9.3C8.7.9 19.1-2.2 24.7 7.8l.1.6c1.7-4.6 4-6.8 8.1-8C38.1-1 44.4.9 47.5 6.6c.8 1.5 1.4 3.3 1.8 5.4z"/><path d="M37.9 18c6.3 0 11.5 5.1 11.5 11.5 0 6.3-5.1 11.4-11.5 11.4-6.3 0-11.5-5.1-11.5-11.4 0-6.4 5.2-11.5 11.5-11.5zm7 9.2h-4.2V23h-4.3v4.2h-4.2v4.3h4.2v4.2h4.3v-4.2h4.2v-4.3z"/></symbol><symbol id="person" viewBox="0 0 24 24"><path d="M12 12c2.21 0 4-1.79 4-4s-1.79-4-4-4-4 1.79-4 4 1.79 4 4 4zm0 2c-2.67 0-8 1.34-8 4v2h16v-2c0-2.66-5.33-4-8-4z"/><path d="M0 0h24v24H0z" fill="none"/></symbol><symbol id="poll" viewBox="0 0 24 24"><path d="M19 3H5c-1.1 0-2 .9-2 2v14c0 1.1.9 2 2 2h14c1.1 0 2-.9 2-2V5c0-1.1-.9-2-2-2zM9 17H7v-7h2v7zm4 0h-2V7h2v10zm4 0h-2v-4h2v4z"/><path d="M0 0h24v24H0z" fill="none"/></symbol><symbol id="print" viewBox="0 0 39.6 46.4"><path d="M30.2 10.1c.4 0 .8-.3.8-.8V.8c0-.4-.3-.8-.8-.8H9.5c-.4 0-.8.3-.8.8v8.5c.1.4.4.8.8.8s.8-.3.8-.8V1.5h19.1v7.8c0 .4.3.8.8.8zM36.1 16.6c0-.8-.6-1.4-1.4-1.4-.8 0-1.4.6-1.4 1.4s.6 1.4 1.4 1.4c.8 0 1.4-.6 1.4-1.4zM8.6 27.9v17.7c0 .4.3.8.8.8H25.9c.2 0 .4-.1.5-.2l4.4-4.4c.2-.2.2-.4.2-.6V27.9c0-.4-.3-.8-.8-.8H9.4c-.4 0-.8.3-.8.8zm18 15.9v-1.9h1.9l-1.9 1.9zM10.1 28.6h19.4v11.9h-3.7c-.4 0-.8.3-.8.8V45H10.1V28.6zM32.1 16.7c-.1-.8-.7-1.4-1.4-1.4-.8 0-1.4.6-1.4 1.4 0 .8.6 1.4 1.4 1.4.8 0 1.4-.6 1.4-1.4z"/><path d="M38.9 11.7H.8c-.4 0-.8.3-.8.8v23.1c0 .4.3.8.8.8h5.9c.4 0 .8-.3.8-.8 0-.4-.3-.8-.8-.8H1.5V13.2h36.6v21.7h-5.2c-.4 0-.8.3-.8.8 0 .4.3.8.8.8h5.9c.4 0 .8-.3.8-.8V12.4c0-.4-.3-.7-.7-.7z"/></symbol><symbol id="samhallsplanering" viewBox="0 0 100 70.9"><path d="M100 28.4v42.5H79.6c.1-.8.1-1.7.1-2.5 0-16.6-13.5-30.1-30.1-30.1s-30 13.5-30 30.1c0 .8.1 1.7.1 2.5H0V28.4h100zM29.7 16.3c-3.4 0-6.1 2.7-6.1 6.1 0 3.3 2.7 6 6.1 6 3.3 0 6-2.7 6-6 0-3.4-2.7-6.1-6-6.1zm0 9.3c-1.8 0-3.3-1.5-3.3-3.3 0-1.8 1.5-3.3 3.3-3.3 1.8 0 3.3 1.4 3.3 3.3-.1 1.8-1.5 3.3-3.3 3.3zM70.4 16.3c-3.3 0-6 2.7-6 6.1 0 3.3 2.7 6 6 6s6.1-2.7 6.1-6c0-3.4-2.7-6.1-6.1-6.1zm0 9.3c-1.8 0-3.3-1.5-3.3-3.3 0-1.8 1.5-3.3 3.3-3.3 1.8 0 3.3 1.4 3.3 3.3 0 1.8-1.5 3.3-3.3 3.3z"/><path d="M82.2 17.8c0-5.9-3.7-6.6-3.7-6.6-5.4-.7-14.7-1.1-14.7-1.1C63 8.6 59.1 0 56.8 0H36.7C33.8 0 29 8.4 28 10.3c0 0-3.7.6-5.4 1-1 .2-3.6.3-3.6 7.7h-2.3v3.4h5.6c0-4.1 3.3-7.5 7.5-7.5 4.1 0 7.4 3.3 7.4 7.5H63c0-4.1 3.3-7.5 7.4-7.5 4.1 0 7.5 3.3 7.5 7.5h5.5v-4.5l-1.2-.1zM46.5 9.5H34.9c1.6-4.9 4.5-8.4 5.7-8.4h5.9v8.4zm2.2 0V1.1h7.5c1.5 0 4.9 7.1 5.9 8.9l-13.4-.5z"/></symbol><symbol id="search" viewBox="0 0 92.3 92.3"><path d="M91.1 85.4L68.4 62.6c12.2-15.1 11.3-37.3-2.7-51.4C58.4 4 48.7 0 38.4 0 28.2 0 18.5 4 11.2 11.3c-15 15-15 39.4 0 54.4C18.5 73 28.1 77 38.4 77c8.9 0 17.3-3 24.2-8.5l22.8 22.8c.8.8 1.8 1.2 2.9 1.2 1 0 2.1-.4 2.9-1.2 1.5-1.7 1.5-4.3-.1-5.9zM17 59.9C5.2 48.1 5.2 28.8 17 17c5.7-5.7 13.3-8.9 21.4-8.9 8.1 0 15.7 3.2 21.4 8.9 11.8 11.8 11.8 31.1 0 42.9-5.7 5.7-13.3 8.9-21.4 8.9-8.1 0-15.7-3.2-21.4-8.9z"/></symbol><symbol id="share" viewBox="0 0 63 88.4"><path class="st0" d="M31.5 3.2"/><path d="M39.8 25.4v3.3h19.9v56.4H3.3V28.7h19.9v-3.3H0v63h63v-63z"/><path d="M29.8 33.8v23.1h3.3V6.3l11 11 2.3-2.3-15-15-15 15 2.3 2.3 11-11v14.6l.1 12.9zm1.7-30.6z"/></symbol><symbol id="telephone" viewBox="0 0 24 24"><path d="M0 0h24v24H0z" fill="none"/><path d="M6.62 10.79c1.44 2.83 3.76 5.14 6.59 6.59l2.2-2.2c.27-.27.67-.36 1.02-.24 1.12.37 2.33.57 3.57.57.55 0 1 .45 1 1V20c0 .55-.45 1-1 1-9.39 0-17-7.61-17-17 0-.55.45-1 1-1h3.5c.55 0 1 .45 1 1 0 1.25.2 2.45.57 3.57.11.35.03.74-.25 1.02l-2.2 2.2z"/></symbol><symbol id="twitter" viewBox="0 0 449.956 449.956"><path d="M449.956 85.657c-17.702 7.614-35.408 12.369-53.102 14.279 19.985-11.991 33.503-28.931 40.546-50.819-18.281 10.847-37.787 18.268-58.532 22.267-18.274-19.414-40.73-29.125-67.383-29.125-25.502 0-47.246 8.992-65.24 26.98-17.984 17.987-26.977 39.731-26.977 65.235 0 6.851.76 13.896 2.284 21.128-37.688-1.903-73.042-11.372-106.068-28.407C82.46 110.158 54.433 87.46 31.403 59.101c-8.375 14.272-12.564 29.787-12.564 46.536 0 15.798 3.711 30.456 11.138 43.97 7.422 13.512 17.417 24.455 29.98 32.831-14.849-.572-28.743-4.475-41.684-11.708v1.142c0 22.271 6.995 41.824 20.983 58.674 13.99 16.848 31.645 27.453 52.961 31.833a95.543 95.543 0 0 1-24.269 3.138c-5.33 0-11.136-.475-17.416-1.42 5.9 18.459 16.75 33.633 32.546 45.535 15.799 11.896 33.691 18.028 53.677 18.418-33.498 26.262-71.66 39.393-114.486 39.393-8.186 0-15.607-.373-22.27-1.139 42.827 27.596 90.03 41.394 141.612 41.394 32.738 0 63.478-5.181 92.21-15.557 28.746-10.369 53.297-24.267 73.665-41.686 20.362-17.415 37.925-37.448 52.674-60.097 14.75-22.651 25.738-46.298 32.977-70.946 7.23-24.653 10.848-49.344 10.848-74.092 0-5.33-.096-9.325-.287-11.991 18.087-13.127 33.504-29.023 46.258-47.672z"/></symbol><symbol id="uppleva" viewBox="0 0 22 17"><path d="M15.6 15.8c-1.4 0-2.7.9-4.1.9-1.4 0-2.8-.9-4.1-.9-1.6 0-2.7.6-3.4 1-.9.4-1.3-.4-.6-.8 0 0 1.3-1.1 4.1-1.1 1.5 0 2.6.8 4.1.8 1.6 0 2.6-.8 4.1-.8 2.6 0 4.1 1.1 4.1 1.1.7.5 0 1.2-.7.7-1-.4-1.4-.9-3.5-.9zM10 0s3.5 2.9 5.5 5.2 3.5 5.2 3.5 5.2l-7.5.6s.1-2.3 0-4.3C11.4 4.8 10 0 10 0zM7.8 9.2C6.7 11 5 12 5 12l5-.6L9.6 4s-.7 3.4-1.8 5.2zm-6 6.8s1.8-1.7 4.8-1.8 3.4.8 4.9.8 3.1-1 4.4-1.1c2.3-.1 4 1.2 4 1.2C22 15.1 22 11 22 11L0 13.2C.3 15.4 1.8 16 1.8 16z"/></symbol><symbol id="utbildning" viewBox="0 0 47.7 62.7"><path d="M12.9 0s4.5 1 6.6 3.3c2.1 2.2 2.8 6.7 2.8 6.7s-4.5-.6-7-3.3C12.8 4.1 12.9 0 12.9 0zM23.6 10V3.1l2.3 1-1.2 5.7z"/><g><path d="M42.6 14.3c-6.9-9-14.7-1.7-19.7-1.6-4.7.2-12.9-6.6-19.6 2.7-5 6.9-2.1 17.9.5 22 2.5 4.1 8 9.3 14.7 9.1 2.7-.1 3.8-1 5.1-1 1.4 0 2.5 1.1 5.2 1.1 6.5-.2 13.1-5.7 15.4-9.9 2.2-4.3 3.6-15.6-1.6-22.4zm-32.5 7.5c-1.4 2.2-.9 5.5-3.2 6-1.6.3-4.4-2.8-1.7-8.2 2.7-5.4 9-5.1 10-3.2 1.5 2.7-4 3.8-5.1 5.4zM45.9 50H1.8c-1 0-1.8.7-1.8 1.6v9.6c0 .9.8 1.6 1.8 1.6H46c1 0 1.8-.7 1.8-1.6v-9.6c-.1-.9-.9-1.6-1.9-1.6zm-37 10.8h-3v-9h3v9zm28 0h-1.5v-9h1.5v9zm5.4 0h-3.2v-9h3.2v9z"/></g></symbol></svg>