<?xml version="1.0" encoding="UTF-8"?><!DOCTYPE svg PUBLIC "-//W3C//DTD SVG 1.1//EN" "http://www.w3.org/Graphics/SVG/1.1/DTD/svg11.dtd"><svg xmlns="http://www.w3.org/2000/svg"><symbol id="bygga" viewBox="0 0 87.3 83.4"><path d="M86.7 24.1c-.3-.3-.8-.9-1.4-1.4s-1.4-1.3-2.4-1.8c-.9-.6-2.1-1.1-3.3-1.6-1.2-.5-2.6-.8-4-1-1.5-.3-2.9-.3-4.5-.2-1.5.1-3 .3-4.6.7-1.5.4-2.9.9-4.4 1.5-1.4.7-2.7 1.4-3.9 2.3-1.2.9-2.4 1.8-3.4 2.8-2 2-3.6 4.4-4.6 6.6-.5 1.1-.9 2.2-1.2 3.3-.3 1-.5 2-.6 2.8-.1.4-.1.7-.1 1.1.4-.3.7-.6 1.2-1 2.1-1.7 5-3.8 8.1-5.6 1.6-.9 3.2-1.7 4.7-2.4.8-.3 1.5-.6 2.3-.9l2.1-.6c.7-.1 1.3-.3 1.8-.4.5-.1 1-.1 1.4-.2.8-.1 1.2-.1 1.2-.1s-.4.1-1.2.2c-.4.1-.8.1-1.4.3-.5.2-1.1.3-1.7.5s-1.3.5-2 .8-1.4.7-2.1 1c-1.5.8-3 1.7-4.4 2.7-2.9 2-5.6 4.3-7.5 6.1L49.4 41c.4.1 1 .2 1.6.2.8.1 1.8.2 2.8.3s2.1.1 3.2.1 2.3-.1 3.5-.2c1.2-.1 2.4-.3 3.5-.5 1.2-.3 2.3-.5 3.4-.9s2.2-.8 3.3-1.3c2.1-.9 4-2.1 5.8-3.4.9-.6 1.7-1.4 2.5-2.1.8-.7 1.6-1.5 2.4-2.2.7-.7 1.5-1.4 2.2-2.2.7-.7 1.3-1.4 1.9-1.9.5-.5 1-1.1 1.3-1.4.3-.4.5-.6.5-.6l-.6-.8zM47.3 29.8c-.9-1.5-1.7-3.2-2.4-4.7-.3-.8-.6-1.5-.9-2.3l-.6-2.1c-.1-.7-.3-1.3-.4-1.8-.1-.5-.1-1-.2-1.4-.1-.8-.1-1.2-.1-1.2s.1.4.2 1.2c.1.4.1.8.3 1.4.2.5.3 1.1.5 1.7s.5 1.3.8 2 .7 1.4 1 2.1c.8 1.4 1.7 3 2.7 4.4.4.6.9 1.2 1.3 1.7 1.6-3 3.6-5.7 5.9-8.1-.2-1-.5-1.9-.8-2.8-.4-1.1-.8-2.2-1.3-3.3-.9-2.1-2.1-4-3.4-5.8-.6-.9-1.4-1.7-2.1-2.5-.7-.8-1.5-1.6-2.2-2.4-.7-.7-1.4-1.5-2.2-2.2-.7-.7-1.4-1.3-1.9-1.9-.5-.5-1.1-1-1.4-1.3-.4-.3-.6-.5-.6-.5s-.2.2-.6.5c-.3.3-.9.8-1.4 1.4-.5.6-1.3 1.4-1.8 2.4-.6.9-1.1 2.1-1.6 3.3s-.8 2.6-1 4c-.3 1.5-.3 2.9-.2 4.5.1 1.5.3 3 .7 4.6.4 1.5.9 2.9 1.5 4.4.7 1.4 1.4 2.7 2.3 3.9.9 1.2 1.8 2.4 2.8 3.4 2 2 4.4 3.6 6.6 4.6.1 0 .2.1.3.1.5-1.7 1.1-3.3 1.9-4.9-.7-.8-1.2-1.6-1.7-2.4zM9.3 81.9s-.1 1.5 1.4 1.5h17.1v-14s-.2-2.3 2-2.3h7.1c2.7 0 2.5 2.3 2.5 2.3v14h16.8c1.9 0 1.8-1.9 1.8-1.9V55.6l-23.6-21-25.1 21v26.3z"/><path d="M0 53.6s2.1 3.9 6.8 0l27.8-23.5 26 23.3c5.4 3.9 7.4 0 7.4 0L34.6 23.2 0 53.6z"/></symbol><symbol id="kommun" viewBox="0 0 80 51"><circle cx="10" cy="5" r="5"/><circle cx="40" cy="5" r="5"/><path d="M35 11c-.6 0-1.3.2-1.8.7L25 20l-8.2-8.2c-.5-.6-1.2-.8-1.8-.8H5c-2.8 0-5 2.2-5 5v10c0 2.8 2.2 5 5 5v20h10V17l8.2 8.2c.5.5 1.1.7 1.8.7s1.3-.3 1.8-.7L35 17v34h10V17l8.2 8.2c.5.5 1.1.7 1.8.7s1.3-.3 1.8-.7L65 17v34h10V31c2.8 0 5-2.2 5-5V16c0-2.8-2.2-5-5-5H65c-.6 0-1.3.2-1.8.7L55 20l-8.2-8.2c-.5-.6-1.2-.8-1.8-.8H35z"/><circle cx="40" cy="5" r="5"/><circle cx="70" cy="5" r="5"/></symbol><symbol id="naringsliv" viewBox="0 0 90 68.7"><path d="M36.8 44.2l8.1 13.5 17.4-31.8 7.8 7L90 11.4l-4.3-3.9-16 17.3-9-8.2-16 29.4-6.3-10.3-35.3 26V0H.3v63.7L0 64l.3.5v4.1h3.1l.1.1.1-.1h84.3v-2.7H7.3z"/></symbol><symbol id="omsorg" viewBox="0 0 49.4 48"><path d="M49.3 12c.4 2.6.2 4.8-.4 6.7-2.8-3.2-6.9-5.2-11.4-5.2-8.4 0-15.3 6.9-15.3 15.3 0 5 2.4 9.5 6.2 12.3-2.1 2.7-3.7 5.3-3.8 7-.1-1.7-1.7-4.1-3.7-6.7-2-2.6-4.6-5.2-6.6-7.3-2.6-2.6-6.1-4.8-8.9-7.5C2 23.3-.6 19.3.3 12.8c.6-4.3 2.6-7.3 5.1-9.3C8.7.9 19.1-2.2 24.7 7.8l.1.6c1.7-4.6 4-6.8 8.1-8C38.1-1 44.4.9 47.5 6.6c.8 1.5 1.4 3.3 1.8 5.4z"/><path d="M37.9 18c6.3 0 11.5 5.1 11.5 11.5 0 6.3-5.1 11.4-11.5 11.4-6.3 0-11.5-5.1-11.5-11.4 0-6.4 5.2-11.5 11.5-11.5zm7 9.2h-4.2V23h-4.3v4.2h-4.2v4.3h4.2v4.2h4.3v-4.2h4.2v-4.3z"/></symbol><symbol id="search" viewBox="0 0 92.3 92.3"><path d="M91.1 85.4L68.4 62.6c12.2-15.1 11.3-37.3-2.7-51.4C58.4 4 48.7 0 38.4 0 28.2 0 18.5 4 11.2 11.3c-15 15-15 39.4 0 54.4C18.5 73 28.1 77 38.4 77c8.9 0 17.3-3 24.2-8.5l22.8 22.8c.8.8 1.8 1.2 2.9 1.2 1 0 2.1-.4 2.9-1.2 1.5-1.7 1.5-4.3-.1-5.9zM17 59.9C5.2 48.1 5.2 28.8 17 17c5.7-5.7 13.3-8.9 21.4-8.9 8.1 0 15.7 3.2 21.4 8.9 11.8 11.8 11.8 31.1 0 42.9-5.7 5.7-13.3 8.9-21.4 8.9-8.1 0-15.7-3.2-21.4-8.9z"/></symbol><symbol id="trafik" viewBox="0 0 100 70.9"><path d="M100 28.4v42.5H79.6c.1-.8.1-1.7.1-2.5 0-16.6-13.5-30.1-30.1-30.1s-30 13.5-30 30.1c0 .8.1 1.7.1 2.5H0V28.4h100zM29.7 16.3c-3.4 0-6.1 2.7-6.1 6.1 0 3.3 2.7 6 6.1 6 3.3 0 6-2.7 6-6 0-3.4-2.7-6.1-6-6.1zm0 9.3c-1.8 0-3.3-1.5-3.3-3.3 0-1.8 1.5-3.3 3.3-3.3 1.8 0 3.3 1.4 3.3 3.3-.1 1.8-1.5 3.3-3.3 3.3zM70.4 16.3c-3.3 0-6 2.7-6 6.1 0 3.3 2.7 6 6 6s6.1-2.7 6.1-6c0-3.4-2.7-6.1-6.1-6.1zm0 9.3c-1.8 0-3.3-1.5-3.3-3.3 0-1.8 1.5-3.3 3.3-3.3 1.8 0 3.3 1.4 3.3 3.3 0 1.8-1.5 3.3-3.3 3.3z"/><path d="M82.2 17.8c0-5.9-3.7-6.6-3.7-6.6-5.4-.7-14.7-1.1-14.7-1.1C63 8.6 59.1 0 56.8 0H36.7C33.8 0 29 8.4 28 10.3c0 0-3.7.6-5.4 1-1 .2-3.6.3-3.6 7.7h-2.3v3.4h5.6c0-4.1 3.3-7.5 7.5-7.5 4.1 0 7.4 3.3 7.4 7.5H63c0-4.1 3.3-7.5 7.4-7.5 4.1 0 7.5 3.3 7.5 7.5h5.5v-4.5l-1.2-.1zM46.5 9.5H34.9c1.6-4.9 4.5-8.4 5.7-8.4h5.9v8.4zm2.2 0V1.1h7.5c1.5 0 4.9 7.1 5.9 8.9l-13.4-.5z"/></symbol><symbol id="uppleva" viewBox="0 0 22 17"><path d="M15.6 15.8c-1.4 0-2.7.9-4.1.9-1.4 0-2.8-.9-4.1-.9-1.6 0-2.7.6-3.4 1-.9.4-1.3-.4-.6-.8 0 0 1.3-1.1 4.1-1.1 1.5 0 2.6.8 4.1.8 1.6 0 2.6-.8 4.1-.8 2.6 0 4.1 1.1 4.1 1.1.7.5 0 1.2-.7.7-1-.4-1.4-.9-3.5-.9zM10 0s3.5 2.9 5.5 5.2 3.5 5.2 3.5 5.2l-7.5.6s.1-2.3 0-4.3C11.4 4.8 10 0 10 0zM7.8 9.2C6.7 11 5 12 5 12l5-.6L9.6 4s-.7 3.4-1.8 5.2zm-6 6.8s1.8-1.7 4.8-1.8 3.4.8 4.9.8 3.1-1 4.4-1.1c2.3-.1 4 1.2 4 1.2C22 15.1 22 11 22 11L0 13.2C.3 15.4 1.8 16 1.8 16z"/></symbol><symbol id="utbildning" viewBox="0 0 89.8 89.8"><path d="M59.6 48.7l-4.1-4.1 3.3-3.3.9-.9 29.7-29.7L78.7 0 48.9 29.7l-4.2 4.2-6.2-6.2L10.8 0 0 10.8 25.2 36l2.5 2.5 6.2 6.2L9.1 69.6.6 88.7l19.2-8.5 29.1-29.1.9-.9 5.1-5.1-.3.3.9.9-4.5 4.5.5.5 4.5-4.5 2.7 2.7 3.3 3.3-6.2 6.2.5.5 6.2-6.2 6.1 6-4.5 4.5.5.5 4.5-4.5 6 6-6.1 6.5.5.5 6.2-6.2 6.1 6.1-4.5 4.5.5.5 4.5-4.5 5.8 5.8-9.1 9.1-29.9-29.9-3.6-3.6-.9.9 3.6 3.6L79 89.8 89.8 79 59.6 48.7zm-31-11l-2.5-2.5L1.7 10.8l9.1-9.1 5.5 5.5-4.5 4.5.5.5 4.5-4.5 6 6-6.2 6.3.5.5 6.2-6.2 6 6-4.5 4.5.5.5 4.5-4.5 4.7 4.7 1.3 1.3-6.1 6.2.5.5 6.2-6.2 6 6L38 38l.5.5L43 34l.8.8-5.7 5.7-3.4 3.4-6.1-6.2zM10.2 70L78.7 1.7l4.2 4.2-68.1 68-4.2-4.2-.4.3-.5-.2.5.2zM7.7 84.3l-2.6-2.6 5-11.2 8.8 8.8-11.2 5zm11.6-5.2zm.4-.3l-4.3-4.3 68.1-68 4.2 4.2-68 68.1z"/></symbol></svg>