<?xml version="1.0" encoding="UTF-8"?><!DOCTYPE svg PUBLIC "-//W3C//DTD SVG 1.1//EN" "http://www.w3.org/Graphics/SVG/1.1/DTD/svg11.dtd"><svg xmlns="http://www.w3.org/2000/svg"><symbol id="alignleft" viewBox="0 0 20 18"><style>.st0{fill:none;stroke-width:2;stroke-miterlimit:10}</style><path class="st0" d="M0 1h20M0 5h15M0 9h20M0 13h15M0 17h20"/></symbol><symbol id="arrow-right-circle" viewBox="0 0 78.6 78.6"><path d="M39.3 0C17.6 0 0 17.6 0 39.3 0 61 17.6 78.6 39.3 78.6 61 78.6 78.6 61 78.6 39.3 78.6 17.6 61 0 39.3 0zm10.8 39.2l-.4.3-15.5 18.9-2.7-2.2 14-17.1-14-17.1 2.7-2.2 15.5 18.9.4.3v.2z"/></symbol><symbol id="arrow-right" viewBox="0 0 78.6 78.6"><path d="M50.1 39.2V39l-.4-.3-15.5-18.9-2.7 2.2 14 17.1-14 17.1 2.7 2.2 15.5-18.9z"/></symbol><symbol id="close" viewBox="0 0 44.3 44.3"><path d="M44.3 2.8L41.5 0 22.2 19.3 2.8 0 0 2.8l19.3 19.4L0 41.5l2.8 2.8L22.2 25l19.3 19.3 2.8-2.8L25 22.2z"/></symbol><symbol id="dragon" viewBox="0 0 118.1 216.9"><path d="M23.8 19.7s-4.9 8.6 3.8 11.1c11 2.7 22.7 4.5 33.7 8.9 3.1 1.2-.3 4.1-2.3 4-19-5.2-37.2-11.8-59-10.9 4.9 5.9 12.1 13.9 13.7 21.9 7.6-6.1 19.4-9.5 28.7-4.5l-11 3.8C14.1 60.5 2.3 78.9.5 96.5c-1.6 19.6 8.9 36.7 26.1 45.7 20.7 10.9 53.9 6.3 63.3 28.3 2.3 5.3 2.1 15.7-2.3 22-7.9 10-19 13-32.2 11.5 0 0-15.5-2.1-24.7-9.1-13.1-10-17-23.4-18.7-38.3l-8-.1c1.9 18.9.1 37.9-2.6 55.8l6.7.7s1.8-4.7 3.7-7.6c1.5-1.5 4.1-2 6.1-.6 23.2 16 60.9 15.9 82.7 1.2 15-11.1 20.4-27.8 16-45.2-9.9-34.9-50-31.1-76.1-43.1-8.7-3.4-17.5-11.9-17.5-22.1-.2-10.6 4.1-19.1 12.8-25.1 3.5-2.2 7.4-2.5 7.4-2.5-7.1 7.3-11.5 15.7-10.2 26.4.9 8.6 8.4 17 16.7 19.4 8.1 2.2 15.4-1 21.4-5.7l-.7-3.7c-3.5.9-8.1 1-11.6.1-7.3-2.6-9.9-9.7-9.3-17 .6-3.1 3.1-5.3 6.7-4.4 17.9 7.4 14.6 31.2 31.5 39.5 5.6 2.1 10.9.2 14.4-2.3 8.8-6.2 12-14.4 14.4-24.4-4.8 5.4-9.1 11.1-16.1 12.4-3.5.8-5.3.1-7.4-3-6.9-11-9.1-29.4-25.3-31-3.1.1-4-.3-9.8.7 4.1-3.4 9.1-6.7 14.6-6.8 8.1-.3 16.4 5.3 19.6 10.9 1.6 3 1.1 8.1-1.1 11l3.7 2.8c6.1-7.9 19.2-18 19.1-24.6-1.1-13-20.6-20.8-32.2-25.4 0 0 2-5.2 1-8.9-2.3-5.2-7-6-11.7-7.3-8.4-2.4-22.1-3.5-28.3-9-6.1-5.5-3.2-11.4-1.7-17.7-16.3 17.4-17.1 19.7-17.1 19.7zm51 27.2c1.9 1 3.9 3 4.9 4.8L62 48.9c3.5-2.5 8.7-4.5 12.8-2z"/></symbol><symbol id="error" viewBox="0 0 24 24"><path d="M0 0h24v24H0z" fill="none"/><path d="M12 2C6.48 2 2 6.48 2 12s4.48 10 10 10 10-4.48 10-10S17.52 2 12 2zm1 15h-2v-2h2v2zm0-4h-2V7h2v6z"/></symbol><symbol id="external" viewBox="0 0 24 24"><path d="M0 0h24v24H0z" fill="none"/><path d="M19 19H5V5h7V3H5a2 2 0 0 0-2 2v14a2 2 0 0 0 2 2h14c1.1 0 2-.9 2-2v-7h-2v7zM14 3v2h3.59l-9.83 9.83 1.41 1.41L19 6.41V10h2V3h-7z"/></symbol><symbol id="facebook" viewBox="0 0 470.513 470.513"><path d="M271.521 154.17v-40.541c0-6.086.28-10.8.849-14.13.567-3.335 1.857-6.615 3.859-9.853 1.999-3.236 5.236-5.47 9.706-6.708 4.476-1.24 10.424-1.858 17.85-1.858h40.539V0h-64.809c-37.5 0-64.433 8.897-80.803 26.691-16.368 17.798-24.551 44.014-24.551 78.658v48.82h-48.542v81.086h48.539v235.256h97.362V235.256h64.805l8.566-81.086h-73.37z"/></symbol><symbol id="instagram" viewBox="0 0 438.536 438.536"><path d="M421.981 16.562C410.941 5.519 397.711 0 382.298 0H56.248C40.83 0 27.604 5.521 16.561 16.562 5.52 27.6.001 40.828.001 56.243V382.29c0 15.413 5.518 28.644 16.56 39.683 11.043 11.04 24.272 16.563 39.687 16.563h326.046c15.41 0 28.644-5.523 39.684-16.563 11.043-11.039 16.557-24.27 16.557-39.683V56.243c-.001-15.418-5.514-28.639-16.554-39.681zM157.462 158.025c17.224-16.652 37.924-24.982 62.097-24.982 24.36 0 45.153 8.33 62.381 24.982 17.228 16.655 25.837 36.785 25.837 60.386 0 23.598-8.609 43.729-25.837 60.379-17.228 16.659-38.014 24.988-62.381 24.988-24.172 0-44.87-8.336-62.097-24.988-17.228-16.652-25.841-36.781-25.841-60.379 0-23.601 8.613-43.73 25.841-60.386zm231.403 212.564c0 4.945-1.718 9.083-5.141 12.416-3.433 3.33-7.519 4.996-12.282 4.996h-305.2c-4.948 0-9.091-1.666-12.419-4.996-3.333-3.326-4.998-7.471-4.998-12.416V185.575H89.08c-3.805 11.993-5.708 24.462-5.708 37.402 0 36.553 13.322 67.715 39.969 93.511 26.65 25.786 58.721 38.685 96.217 38.685 24.744 0 47.583-5.903 68.527-17.703 20.937-11.807 37.486-27.839 49.676-48.112 12.183-20.272 18.274-42.4 18.274-66.38 0-12.94-1.91-25.406-5.715-37.402h38.547V370.59h-.002zm0-254.963c0 5.52-1.903 10.184-5.716 13.99-3.805 3.809-8.466 5.711-13.989 5.711h-49.676c-5.517 0-10.185-1.903-13.99-5.711-3.806-3.806-5.708-8.47-5.708-13.99V68.522c0-5.33 1.902-9.945 5.708-13.848 3.806-3.901 8.474-5.854 13.99-5.854h49.676c5.523 0 10.185 1.952 13.989 5.854 3.812 3.903 5.716 8.518 5.716 13.848v47.104z"/></symbol><symbol id="linkedin" viewBox="0 0 438.536 438.535"><path d="M5.424 145.895H99.64v282.932H5.424zM408.842 171.739c-19.791-21.604-45.967-32.408-78.512-32.408-11.991 0-22.891 1.475-32.695 4.427-9.801 2.95-18.079 7.089-24.838 12.419-6.755 5.33-12.135 10.278-16.129 14.844-3.798 4.337-7.512 9.389-11.136 15.104v-40.232h-93.935l.288 13.706c.193 9.139.288 37.307.288 84.508 0 47.205-.19 108.777-.572 184.722h93.931V270.942c0-9.705 1.041-17.412 3.139-23.127 4-9.712 10.037-17.843 18.131-24.407 8.093-6.572 18.13-9.855 30.125-9.855 16.364 0 28.407 5.662 36.117 16.987 7.707 11.324 11.561 26.98 11.561 46.966V428.82h93.931V266.664c-.007-41.688-9.897-73.328-29.694-94.925zM53.103 9.708c-15.796 0-28.595 4.619-38.4 13.848C4.899 32.787 0 44.441 0 58.529 0 72.42 4.758 84.034 14.275 93.358c9.514 9.325 22.078 13.99 37.685 13.99h.571c15.99 0 28.887-4.661 38.688-13.99 9.801-9.324 14.606-20.934 14.417-34.829-.19-14.087-5.047-25.742-14.561-34.973C81.562 14.323 68.9 9.708 53.103 9.708z"/></symbol><symbol id="menu" viewBox="0 0 114 78.2"><circle cx="17.1" cy="69.3" r="8.9"/><circle cx="53" cy="69.3" r="8.9"/><circle cx="88.9" cy="69.3" r="8.9"/><path d="M26.3 32.2V10.9L18 26.8h-3.4L6.3 10.9v21.3H0V0h6.7l9.5 18.3L25.9 0h6.7v32.2h-6.3zM49.4 32.7c-1.9 0-3.6-.3-5.2-1-1.5-.6-2.9-1.5-3.9-2.7-1.1-1.1-1.9-2.4-2.5-3.9-.6-1.5-.9-3-.9-4.7 0-1.7.3-3.3.9-4.8.6-1.5 1.4-2.8 2.5-3.9s2.4-2 4-2.7c1.6-.7 3.3-1 5.2-1 1.9 0 3.7.3 5.2 1s2.8 1.6 3.9 2.7 1.9 2.4 2.5 3.9c.6 1.5.8 3 .8 4.6v1.1c0 .4-.1.7-.1.9H43.3c.1.9.3 1.8.7 2.5.4.7.8 1.3 1.4 1.9.6.5 1.2.9 2 1.2.7.3 1.5.4 2.3.4 1.2 0 2.4-.3 3.4-.9 1.1-.6 1.8-1.4 2.2-2.3l5.2 1.5c-.9 1.8-2.3 3.3-4.2 4.5-2 1.1-4.3 1.7-6.9 1.7zm6.1-14.4c-.2-1.8-.8-3.2-2-4.3-1.2-1.1-2.6-1.6-4.2-1.6-.8 0-1.6.1-2.3.4-.7.3-1.3.7-1.9 1.2-.5.5-1 1.1-1.3 1.9-.3.7-.6 1.5-.6 2.4h12.3zM87.6 32.2h-6.1V18.9c0-1.9-.3-3.3-1-4.2-.7-.9-1.6-1.3-2.8-1.3-.6 0-1.2.1-1.9.4-.6.2-1.2.6-1.8 1-.6.4-1.1 1-1.5 1.6-.5.6-.8 1.3-1 2v13.9h-6.1V8.4H71v4.4c.9-1.5 2.1-2.7 3.8-3.5 1.7-.8 3.6-1.3 5.6-1.3 1.5 0 2.7.3 3.6.8.9.5 1.7 1.3 2.2 2.1.5.9.9 1.9 1.1 3 .2 1.1.3 2.3.3 3.4v14.9zM92.9 36.8c.5.2 1 .3 1.5.3.5.1.9.1 1.2.1.4 0 .8-.1 1.1-.2.3-.2.6-.4.9-.8.3-.4.5-.9.8-1.6.3-.7.6-1.5.9-2.5L89.9 8.4h6.3l6.4 18.5 5.7-18.5h5.7l-10 28.5c-.6 1.7-1.6 3-2.9 4.1-1.4 1.1-3.1 1.6-5.2 1.6-.5 0-1 0-1.5-.1s-1-.2-1.6-.4v-5.3z"/></symbol><symbol id="message" viewBox="0 0 24 24"><path d="M20 4H4c-1.1 0-1.99.9-1.99 2L2 18c0 1.1.9 2 2 2h16c1.1 0 2-.9 2-2V6c0-1.1-.9-2-2-2zm0 4l-8 5-8-5V6l8 5 8-5v2z"/><path d="M0 0h24v24H0z" fill="none"/></symbol><symbol id="person" viewBox="0 0 24 24"><path d="M12 12c2.21 0 4-1.79 4-4s-1.79-4-4-4-4 1.79-4 4 1.79 4 4 4zm0 2c-2.67 0-8 1.34-8 4v2h16v-2c0-2.66-5.33-4-8-4z"/><path d="M0 0h24v24H0z" fill="none"/></symbol><symbol id="search" viewBox="0 0 92.3 92.3"><path d="M91.1 85.4L68.4 62.6c12.2-15.1 11.3-37.3-2.7-51.4C58.4 4 48.7 0 38.4 0 28.2 0 18.5 4 11.2 11.3c-15 15-15 39.4 0 54.4C18.5 73 28.1 77 38.4 77c8.9 0 17.3-3 24.2-8.5l22.8 22.8c.8.8 1.8 1.2 2.9 1.2 1 0 2.1-.4 2.9-1.2 1.5-1.7 1.5-4.3-.1-5.9zM17 59.9C5.2 48.1 5.2 28.8 17 17c5.7-5.7 13.3-8.9 21.4-8.9 8.1 0 15.7 3.2 21.4 8.9 11.8 11.8 11.8 31.1 0 42.9-5.7 5.7-13.3 8.9-21.4 8.9-8.1 0-15.7-3.2-21.4-8.9z"/></symbol><symbol id="share" viewBox="0 0 63 88.4"><path class="st0" d="M31.5 3.2"/><path d="M39.8 25.4v3.3h19.9v56.4H3.3V28.7h19.9v-3.3H0v63h63v-63z"/><path d="M29.8 33.8v23.1h3.3V6.3l11 11 2.3-2.3-15-15-15 15 2.3 2.3 11-11v14.6l.1 12.9zm1.7-30.6z"/></symbol><symbol id="twitter" viewBox="0 0 449.956 449.956"><path d="M449.956 85.657c-17.702 7.614-35.408 12.369-53.102 14.279 19.985-11.991 33.503-28.931 40.546-50.819-18.281 10.847-37.787 18.268-58.532 22.267-18.274-19.414-40.73-29.125-67.383-29.125-25.502 0-47.246 8.992-65.24 26.98-17.984 17.987-26.977 39.731-26.977 65.235 0 6.851.76 13.896 2.284 21.128-37.688-1.903-73.042-11.372-106.068-28.407C82.46 110.158 54.433 87.46 31.403 59.101c-8.375 14.272-12.564 29.787-12.564 46.536 0 15.798 3.711 30.456 11.138 43.97 7.422 13.512 17.417 24.455 29.98 32.831-14.849-.572-28.743-4.475-41.684-11.708v1.142c0 22.271 6.995 41.824 20.983 58.674 13.99 16.848 31.645 27.453 52.961 31.833a95.543 95.543 0 0 1-24.269 3.138c-5.33 0-11.136-.475-17.416-1.42 5.9 18.459 16.75 33.633 32.546 45.535 15.799 11.896 33.691 18.028 53.677 18.418-33.498 26.262-71.66 39.393-114.486 39.393-8.186 0-15.607-.373-22.27-1.139 42.827 27.596 90.03 41.394 141.612 41.394 32.738 0 63.478-5.181 92.21-15.557 28.746-10.369 53.297-24.267 73.665-41.686 20.362-17.415 37.925-37.448 52.674-60.097 14.75-22.651 25.738-46.298 32.977-70.946 7.23-24.653 10.848-49.344 10.848-74.092 0-5.33-.096-9.325-.287-11.991 18.087-13.127 33.504-29.023 46.258-47.672z"/></symbol></svg>